<svg width="19" height="16" viewBox="0 0 19 16" fill="none" xmlns="http://www.w3.org/2000/svg">
<path d="M3.34961 6.2171V11.2264C3.34961 11.5255 3.34961 11.6751 3.39516 11.8071C3.43543 11.9239 3.50116 12.0303 3.58759 12.1185C3.68533 12.2183 3.81911 12.2852 4.08666 12.419L8.58666 14.669C8.80529 14.7783 8.91462 14.8329 9.02928 14.8544C9.13083 14.8735 9.23505 14.8735 9.33661 14.8544C9.45127 14.8329 9.5606 14.7783 9.77923 14.669L14.2792 12.419C14.5468 12.2852 14.6806 12.2183 14.7783 12.1185C14.8647 12.0303 14.9305 11.9239 14.9707 11.8071C15.0163 11.6751 15.0163 11.5255 15.0163 11.2264V6.2171M0.849609 4.9671L8.8848 0.9495C8.99412 0.894841 9.04878 0.867511 9.10611 0.856754C9.15689 0.847228 9.209 0.847228 9.25978 0.856754C9.31711 0.867511 9.37177 0.894841 9.48108 0.9495L17.5163 4.9671L9.48108 8.98469C9.37177 9.03935 9.31711 9.06668 9.25978 9.07744C9.209 9.08696 9.15689 9.08696 9.10611 9.07744C9.04878 9.06668 8.99412 9.03935 8.8848 8.98469L0.849609 4.9671Z" stroke="#8A8A91" stroke-width="1.7" stroke-linecap="round" stroke-linejoin="round"/>
</svg>
