<svg width="16" height="19" viewBox="0 0 16 19" fill="none" xmlns="http://www.w3.org/2000/svg">
<path d="M9.18294 8.34961H4.18294M5.84961 11.6829H4.18294M10.8496 5.01628H4.18294M14.1829 4.84961V13.5163C14.1829 14.9164 14.1829 15.6165 13.9105 16.1513C13.6708 16.6217 13.2883 17.0041 12.8179 17.2438C12.2831 17.5163 11.5831 17.5163 10.1829 17.5163H4.84961C3.44948 17.5163 2.74941 17.5163 2.21463 17.2438C1.74423 17.0041 1.36178 16.6217 1.12209 16.1513C0.849609 15.6165 0.849609 14.9164 0.849609 13.5163V4.84961C0.849609 3.44948 0.849609 2.74941 1.12209 2.21463C1.36178 1.74423 1.74423 1.36178 2.21463 1.12209C2.74941 0.849609 3.44948 0.849609 4.84961 0.849609H10.1829C11.5831 0.849609 12.2831 0.849609 12.8179 1.12209C13.2883 1.36178 13.6708 1.74423 13.9105 2.21463C14.1829 2.74941 14.1829 3.44948 14.1829 4.84961Z" stroke="#8A8A91" stroke-width="1.7" stroke-linecap="round" stroke-linejoin="round"/>
</svg>
