<svg width="17" height="17" viewBox="0 0 17 17" fill="none" xmlns="http://www.w3.org/2000/svg">
<path d="M0.849609 5.84961H15.8496M5.84961 5.84961L5.84961 15.8496M4.84961 0.849609H11.8496C13.2497 0.849609 13.9498 0.849609 14.4846 1.12209C14.955 1.36178 15.3374 1.74423 15.5771 2.21463C15.8496 2.74941 15.8496 3.44948 15.8496 4.84961V11.8496C15.8496 13.2497 15.8496 13.9498 15.5771 14.4846C15.3374 14.955 14.955 15.3374 14.4846 15.5771C13.9498 15.8496 13.2497 15.8496 11.8496 15.8496H4.84961C3.44948 15.8496 2.74941 15.8496 2.21463 15.5771C1.74423 15.3374 1.36178 14.955 1.12209 14.4846C0.849609 13.9498 0.849609 13.2497 0.849609 11.8496V4.84961C0.849609 3.44948 0.849609 2.74941 1.12209 2.21463C1.36178 1.74423 1.74423 1.36178 2.21463 1.12209C2.74941 0.849609 3.44948 0.849609 4.84961 0.849609Z" stroke="#8A8A91" stroke-width="1.7" stroke-linecap="round" stroke-linejoin="round"/>
</svg>
