<svg width="17" height="19" viewBox="0 0 17 19" fill="none" xmlns="http://www.w3.org/2000/svg">
<path d="M6.14138 15.3255L6.62841 16.4209C6.7732 16.747 7.00948 17.024 7.3086 17.2184C7.60772 17.4129 7.95684 17.5163 8.3136 17.5163C8.67036 17.5163 9.01947 17.4129 9.3186 17.2184C9.61772 17.024 9.854 16.747 9.99878 16.4209L10.4858 15.3255C10.6592 14.9369 10.9508 14.6128 11.3192 14.3996C11.6898 14.1858 12.1186 14.0947 12.5442 14.1394L13.7358 14.2663C14.0905 14.3038 14.4485 14.2376 14.7664 14.0757C15.0842 13.9138 15.3483 13.6632 15.5266 13.3542C15.705 13.0455 15.7901 12.6915 15.7713 12.3353C15.7526 11.9792 15.6309 11.6361 15.421 11.3478L14.7155 10.3783C14.4642 10.0306 14.33 9.61196 14.3321 9.18294C14.332 8.7551 14.4675 8.33823 14.7192 7.9922L15.4247 7.02276C15.6346 6.7344 15.7563 6.39133 15.775 6.03517C15.7938 5.67901 15.7087 5.32506 15.5303 5.01628C15.352 4.70731 15.0879 4.45668 14.7701 4.2948C14.4522 4.13291 14.0942 4.06672 13.7395 4.10424L12.5479 4.23109C12.1223 4.27578 11.6935 4.18471 11.3229 3.97091C10.9538 3.75649 10.6621 3.43074 10.4895 3.04035L9.99878 1.94498C9.854 1.61892 9.61772 1.34187 9.3186 1.14744C9.01947 0.953011 8.67036 0.849551 8.3136 0.849609C7.95684 0.849551 7.60772 0.953011 7.3086 1.14744C7.00948 1.34187 6.7732 1.61892 6.62841 1.94498L6.14138 3.04035C5.96882 3.43074 5.6771 3.75649 5.30804 3.97091C4.93739 4.18471 4.5086 4.27578 4.08304 4.23109L2.88767 4.10424C2.53295 4.06672 2.17496 4.13291 1.8571 4.2948C1.53925 4.45668 1.27519 4.70731 1.09693 5.01628C0.918449 5.32506 0.833418 5.67901 0.852154 6.03517C0.870891 6.39133 0.992591 6.7344 1.20249 7.02276L1.90804 7.9922C2.15966 8.33823 2.29516 8.7551 2.29508 9.18294C2.29516 9.61079 2.15966 10.0277 1.90804 10.3737L1.20249 11.3431C0.992591 11.6315 0.870891 11.9746 0.852154 12.3307C0.833418 12.6869 0.918449 13.0408 1.09693 13.3496C1.27536 13.6584 1.53946 13.9089 1.85726 14.0708C2.17507 14.2326 2.53297 14.2989 2.88767 14.2616L4.07934 14.1348C4.5049 14.0901 4.93369 14.1812 5.30434 14.395C5.67478 14.6088 5.96785 14.9346 6.14138 15.3255Z" stroke="#8A8A91" stroke-width="1.7" stroke-linecap="round" stroke-linejoin="round"/>
<path d="M8.31211 11.6829C9.69282 11.6829 10.8121 10.5637 10.8121 9.18294C10.8121 7.80223 9.69282 6.68294 8.31211 6.68294C6.9314 6.68294 5.81211 7.80223 5.81211 9.18294C5.81211 10.5637 6.9314 11.6829 8.31211 11.6829Z" stroke="#8A8A91" stroke-width="1.7" stroke-linecap="round" stroke-linejoin="round"/>
</svg>
