<svg width="17" height="17" viewBox="0 0 17 17" fill="none" xmlns="http://www.w3.org/2000/svg">
<path d="M15.8496 13.3496V8.34961C15.8496 4.20747 12.4917 0.849609 8.34961 0.849609C4.20747 0.849609 0.849609 4.20747 0.849609 8.34961V13.3496M2.93294 15.8496C1.78235 15.8496 0.849609 14.9169 0.849609 13.7663V12.0996C0.849609 10.949 1.78235 10.0163 2.93294 10.0163C4.08354 10.0163 5.01628 10.949 5.01628 12.0996V13.7663C5.01628 14.9169 4.08354 15.8496 2.93294 15.8496ZM13.7663 15.8496C12.6157 15.8496 11.6829 14.9169 11.6829 13.7663V12.0996C11.6829 10.949 12.6157 10.0163 13.7663 10.0163C14.9169 10.0163 15.8496 10.949 15.8496 12.0996V13.7663C15.8496 14.9169 14.9169 15.8496 13.7663 15.8496Z" stroke="#8A8A91" stroke-width="1.7" stroke-linecap="round" stroke-linejoin="round"/>
</svg>
