<svg width="19" height="14" viewBox="0 0 19 14" fill="none" xmlns="http://www.w3.org/2000/svg">
<path d="M17.5163 5.01628H0.849609M8.34961 8.34961H4.18294M0.84961 3.51628L0.849609 9.84961C0.849609 10.783 0.849609 11.2497 1.03127 11.6063C1.19105 11.9199 1.44602 12.1748 1.75963 12.3346C2.11614 12.5163 2.58285 12.5163 3.51628 12.5163L14.8496 12.5163C15.783 12.5163 16.2497 12.5163 16.6063 12.3346C16.9199 12.1748 17.1748 11.9199 17.3346 11.6063C17.5163 11.2497 17.5163 10.783 17.5163 9.84961V3.51628C17.5163 2.58286 17.5163 2.11615 17.3346 1.75963C17.1748 1.44602 16.9199 1.19106 16.6063 1.03127C16.2497 0.849611 15.783 0.849611 14.8496 0.84961L3.51628 0.849609C2.58286 0.849609 2.11615 0.849609 1.75963 1.03127C1.44602 1.19105 1.19105 1.44602 1.03127 1.75963C0.84961 2.11614 0.84961 2.58286 0.84961 3.51628Z" stroke="currentColor" stroke-width="1.7" stroke-linecap="round" stroke-linejoin="round"/>
</svg>
