<svg width="32" height="32" viewBox="0 0 32 32" fill="none" xmlns="http://www.w3.org/2000/svg">
<rect width="32" height="32" rx="8" fill="#F1F1FE"/>
<path d="M22.6673 22V20.6667C22.6673 19.4241 21.8175 18.38 20.6673 18.084M18.334 10.1938C19.3113 10.5894 20.0007 11.5475 20.0007 12.6667C20.0007 13.7858 19.3113 14.7439 18.334 15.1395M19.334 22C19.334 20.7575 19.334 20.1362 19.131 19.6462C18.8603 18.9928 18.3412 18.4736 17.6878 18.203C17.1978 18 16.5765 18 15.334 18H13.334C12.0915 18 11.4702 18 10.9802 18.203C10.3268 18.4736 9.80762 18.9928 9.53697 19.6462C9.33398 20.1362 9.33398 20.7575 9.33398 22M17.0007 12.6667C17.0007 14.1394 15.8067 15.3333 14.334 15.3333C12.8612 15.3333 11.6673 14.1394 11.6673 12.6667C11.6673 11.1939 12.8612 10 14.334 10C15.8067 10 17.0007 11.1939 17.0007 12.6667Z" stroke="#4D49FC" stroke-width="1.5" stroke-linecap="round" stroke-linejoin="round"/>
</svg>
