<svg width="60" height="60" viewBox="0 0 60 60" fill="none" xmlns="http://www.w3.org/2000/svg">
<rect width="60" height="60" rx="8" fill="#FFAA00" fill-opacity="0.08"/>
<path d="M31.1673 21.8333C31.1673 23.122 28.2945 24.1667 24.7507 24.1667C21.2068 24.1667 18.334 23.122 18.334 21.8333M31.1673 21.8333C31.1673 20.5447 28.2945 19.5 24.7507 19.5C21.2068 19.5 18.334 20.5447 18.334 21.8333M31.1673 21.8333V23.5833M18.334 21.8333V35.8333C18.334 37.122 21.2068 38.1667 24.7507 38.1667M24.7507 28.8333C24.554 28.8333 24.3594 28.8301 24.1673 28.8238C20.8969 28.7167 18.334 27.7172 18.334 26.5M24.7507 33.5C21.2068 33.5 18.334 32.4553 18.334 31.1667M41.6673 29.4167C41.6673 30.7053 38.7945 31.75 35.2507 31.75C31.7068 31.75 28.834 30.7053 28.834 29.4167M41.6673 29.4167C41.6673 28.128 38.7945 27.0833 35.2507 27.0833C31.7068 27.0833 28.834 28.128 28.834 29.4167M41.6673 29.4167V38.1667C41.6673 39.4553 38.7945 40.5 35.2507 40.5C31.7068 40.5 28.834 39.4553 28.834 38.1667V29.4167M41.6673 33.7917C41.6673 35.0803 38.7945 36.125 35.2507 36.125C31.7068 36.125 28.834 35.0803 28.834 33.7917" stroke="#FE8A15" stroke-width="2" stroke-linecap="round" stroke-linejoin="round"/>
</svg>
