<svg width="16" height="16" viewBox="0 0 16 16" fill="none" xmlns="http://www.w3.org/2000/svg">
<path d="M7.52242 2.30205C7.67608 1.99076 7.7529 1.83511 7.8572 1.78538C7.94795 1.74211 8.05338 1.74211 8.14412 1.78538C8.24842 1.83511 8.32525 1.99076 8.47891 2.30205L9.93669 5.25536C9.98205 5.34726 10.0047 5.39321 10.0379 5.42889C10.0672 5.46048 10.1024 5.48607 10.1415 5.50425C10.1857 5.52479 10.2364 5.5322 10.3378 5.54702L13.5986 6.02364C13.942 6.07383 14.1137 6.09893 14.1932 6.1828C14.2623 6.25577 14.2948 6.35603 14.2817 6.45569C14.2665 6.57022 14.1422 6.69129 13.8936 6.93342L11.5349 9.23078C11.4614 9.3024 11.4247 9.33821 11.4009 9.38081C11.3799 9.41854 11.3665 9.45998 11.3613 9.50284C11.3554 9.55125 11.3641 9.60183 11.3814 9.703L11.938 12.9479C11.9967 13.2902 12.026 13.4613 11.9708 13.5628C11.9229 13.6512 11.8376 13.7132 11.7387 13.7315C11.6251 13.7525 11.4714 13.6717 11.1641 13.5101L8.2489 11.9771C8.15807 11.9293 8.11266 11.9054 8.06481 11.896C8.02245 11.8877 7.97888 11.8877 7.93651 11.896C7.88867 11.9054 7.84325 11.9293 7.75242 11.9771L4.83727 13.5101C4.52993 13.6717 4.37626 13.7525 4.26263 13.7315C4.16377 13.7132 4.07847 13.6512 4.03048 13.5628C3.97532 13.4613 4.00467 13.2902 4.06337 12.9479L4.61991 9.703C4.63726 9.60183 4.64593 9.55125 4.64006 9.50284C4.63487 9.45998 4.62139 9.41854 4.60039 9.38081C4.57667 9.33821 4.5399 9.3024 4.46637 9.23078L2.10769 6.93342C1.85909 6.69129 1.73479 6.57022 1.71967 6.45569C1.70651 6.35603 1.73902 6.25577 1.80815 6.1828C1.88761 6.09893 2.0593 6.07383 2.40268 6.02364L5.66353 5.54702C5.76493 5.5322 5.81564 5.52479 5.8598 5.50425C5.89889 5.48607 5.93409 5.46048 5.96344 5.42889C5.99659 5.39321 6.01927 5.34726 6.06463 5.25536L7.52242 2.30205Z" stroke="#111113" stroke-width="1.3" stroke-linecap="round" stroke-linejoin="round"/>
</svg>
