<svg width="60" height="60" viewBox="0 0 60 60" fill="none" xmlns="http://www.w3.org/2000/svg">
<rect width="60" height="60" rx="8" fill="#F4FEF4"/>
<path d="M39.3327 30.583V23.933C39.3327 21.9728 39.3327 20.9927 38.9512 20.244C38.6156 19.5855 38.0802 19.05 37.4217 18.7145C36.673 18.333 35.6929 18.333 33.7327 18.333H26.266C24.3058 18.333 23.3257 18.333 22.577 18.7145C21.9185 19.05 21.383 19.5855 21.0475 20.244C20.666 20.9927 20.666 21.9728 20.666 23.933V36.0663C20.666 38.0265 20.666 39.0066 21.0475 39.7553C21.383 40.4139 21.9185 40.9493 22.577 41.2849C23.3257 41.6663 24.3058 41.6663 26.266 41.6663H29.9993M32.3327 28.833H25.3327M27.666 33.4997H25.3327M34.666 24.1663H25.3327M32.916 38.1663L35.2493 40.4997L40.4994 35.2497" stroke="#25BC2D" stroke-width="2" stroke-linecap="round" stroke-linejoin="round"/>
</svg>
