<svg width="32" height="32" viewBox="0 0 32 32" fill="none" xmlns="http://www.w3.org/2000/svg">
<rect width="32" height="32" rx="8" fill="#F1F1FE"/>
<path d="M22 15.9997L14 15.9997M22 11.9997L14 11.9997M22 19.9997L14 19.9997M11.3333 15.9997C11.3333 16.3679 11.0349 16.6663 10.6667 16.6663C10.2985 16.6663 10 16.3679 10 15.9997C10 15.6315 10.2985 15.333 10.6667 15.333C11.0349 15.333 11.3333 15.6315 11.3333 15.9997ZM11.3333 11.9997C11.3333 12.3679 11.0349 12.6663 10.6667 12.6663C10.2985 12.6663 10 12.3679 10 11.9997C10 11.6315 10.2985 11.333 10.6667 11.333C11.0349 11.333 11.3333 11.6315 11.3333 11.9997ZM11.3333 19.9997C11.3333 20.3679 11.0349 20.6663 10.6667 20.6663C10.2985 20.6663 10 20.3679 10 19.9997C10 19.6315 10.2985 19.333 10.6667 19.333C11.0349 19.333 11.3333 19.6315 11.3333 19.9997Z" stroke="#4D49FC" stroke-width="1.5" stroke-linecap="round" stroke-linejoin="round"/>
</svg>
