<svg width="24" height="24" viewBox="0 0 24 24" fill="none" xmlns="http://www.w3.org/2000/svg">
<rect width="24" height="24" rx="4" fill="#F1F1FE"/>
<path d="M16.6674 18H17.341C17.9884 18 18.3122 18 18.4906 17.865C18.6461 17.7474 18.7423 17.5677 18.7539 17.3731C18.7672 17.1497 18.5876 16.8804 18.2285 16.3417L16.2216 13.3313C15.9248 12.8862 15.7765 12.6636 15.5895 12.586C15.426 12.5182 15.2422 12.5182 15.0787 12.586C14.8917 12.6636 14.7433 12.8862 14.4466 13.3313L13.9504 14.0755M16.6674 18L11.5444 10.6001C11.2498 10.1745 11.1025 9.96176 10.9185 9.88696C10.7575 9.82152 10.5773 9.82152 10.4164 9.88696C10.2323 9.96176 10.085 10.1745 9.79041 10.6001L5.82621 16.3262C5.45086 16.8684 5.26318 17.1394 5.27387 17.3649C5.28317 17.5612 5.37866 17.7435 5.53479 17.8629C5.71408 18 6.04379 18 6.70322 18H16.6674ZM18.0007 8C18.0007 9.10457 17.1053 10 16.0007 10C14.8962 10 14.0007 9.10457 14.0007 8C14.0007 6.89543 14.8962 6 16.0007 6C17.1053 6 18.0007 6.89543 18.0007 8Z" stroke="#4D49FC" stroke-width="1.5" stroke-linecap="round" stroke-linejoin="round"/>
</svg>
