<svg width="56" height="56" viewBox="0 0 56 56" fill="none" xmlns="http://www.w3.org/2000/svg">
<rect width="56" height="56" rx="8" fill="#FFF7F5"/>
<path d="M35.8457 21.5945C35.8457 20.7968 35.1993 20.1528 34.4046 20.1528C33.6099 20.1528 32.9629 20.7968 32.9629 21.5945C32.9629 22.3892 33.6099 23.0332 34.4046 23.0332C35.1993 23.0332 35.8457 22.3892 35.8457 21.5945Z" fill="url(#paint0_linear_230_2223)"/>
<path d="M37.7666 32.8484C37.7132 34.0185 37.5175 34.6543 37.355 35.0765C37.1367 35.6364 36.8764 36.0367 36.4542 36.4565C36.0367 36.8764 35.6364 37.1362 35.0765 37.352C34.6543 37.5169 34.0161 37.7132 32.8461 37.769C31.5811 37.8247 31.2063 37.8366 27.9985 37.8366C24.7937 37.8366 24.4159 37.8247 23.1509 37.769C21.9809 37.7132 21.3457 37.5169 20.9235 37.352C20.3607 37.1362 19.9633 36.8764 19.5435 36.4565C19.1206 36.0367 18.8603 35.6364 18.645 35.0765C18.4825 34.6543 18.2838 34.0185 18.2334 32.8484C18.1717 31.5835 18.1605 31.2027 18.1605 28.0015C18.1605 24.7937 18.1717 24.4159 18.2334 23.1509C18.2838 21.9809 18.4825 21.3457 18.645 20.9199C18.8603 20.3607 19.1206 19.9627 19.5435 19.5428C19.9633 19.1236 20.3607 18.8632 20.9235 18.645C21.3457 18.4795 21.9809 18.2862 23.1509 18.2305C24.4159 18.1747 24.7937 18.1605 27.9985 18.1605C31.2063 18.1605 31.5811 18.1747 32.8461 18.2305C34.0161 18.2862 34.6543 18.4795 35.0765 18.645C35.6364 18.8632 36.0367 19.1236 36.4542 19.5428C36.8764 19.9627 37.1367 20.3607 37.355 20.9199C37.5175 21.3457 37.7132 21.9809 37.7666 23.1509C37.8253 24.4159 37.8395 24.7937 37.8395 28.0015C37.8395 31.2027 37.8253 31.5835 37.7666 32.8484ZM39.9271 23.0525C39.8683 21.7739 39.6667 20.9003 39.3672 20.1395C39.0624 19.3501 38.6538 18.6812 37.9848 18.0122C37.3188 17.3462 36.6499 16.9376 35.8605 16.6292C35.0967 16.3327 34.2261 16.1287 32.9469 16.0729C31.6677 16.0113 31.2591 16 27.9985 16C24.7409 16 24.3293 16.0113 23.0501 16.0729C21.7739 16.1287 20.9039 16.3327 20.1365 16.6292C19.3501 16.9376 18.6812 17.3462 18.0152 18.0122C17.3462 18.6812 16.9376 19.3501 16.6298 20.1395C16.3333 20.9003 16.1317 21.7739 16.07 23.0525C16.0142 24.3317 16 24.7409 16 28.0015C16 31.2591 16.0142 31.6677 16.07 32.9469C16.1317 34.2231 16.3333 35.0961 16.6298 35.8605C16.9376 36.6469 17.3462 37.3188 18.0152 37.9848C18.6812 38.6508 19.3501 39.0624 20.1365 39.3702C20.9039 39.6667 21.7739 39.8683 23.0501 39.9271C24.3293 39.9858 24.7409 40 27.9985 40C31.2591 40 31.6677 39.9858 32.9469 39.9271C34.2261 39.8683 35.0967 39.6667 35.8605 39.3702C36.6499 39.0624 37.3188 38.6508 37.9848 37.9848C38.6538 37.3188 39.0624 36.6469 39.3672 35.8605C39.6667 35.0961 39.8683 34.2231 39.9271 32.9469C39.9858 31.6677 40 31.2591 40 28.0015C40 24.7409 39.9858 24.3317 39.9271 23.0525Z" fill="url(#paint1_linear_230_2223)"/>
<path d="M27.9978 31.9977C25.7899 31.9977 23.9983 30.209 23.9983 28.0011C23.9983 25.7897 25.7899 23.9987 27.9978 23.9987C30.2064 23.9987 32.0003 25.7897 32.0003 28.0011C32.0003 30.209 30.2064 31.9977 27.9978 31.9977ZM27.9978 21.8353C24.5944 21.8353 21.8379 24.5976 21.8379 28.0011C21.8379 31.4017 24.5944 34.1611 27.9978 34.1611C31.4013 34.1611 34.1608 31.4017 34.1608 28.0011C34.1608 24.5976 31.4013 21.8353 27.9978 21.8353Z" fill="url(#paint2_linear_230_2223)"/>
<defs>
<linearGradient id="paint0_linear_230_2223" x1="16.2159" y1="39.7515" x2="38.0005" y2="17.967" gradientUnits="userSpaceOnUse">
<stop stop-color="#FFD521"/>
<stop offset="0.05" stop-color="#FFD521"/>
<stop offset="0.501119" stop-color="#F50000"/>
<stop offset="0.95" stop-color="#B900B4"/>
<stop offset="0.950079" stop-color="#B900B4"/>
<stop offset="1" stop-color="#B900B4"/>
</linearGradient>
<linearGradient id="paint1_linear_230_2223" x1="16.2165" y1="39.7817" x2="38.0189" y2="17.9793" gradientUnits="userSpaceOnUse">
<stop stop-color="#FFD521"/>
<stop offset="0.05" stop-color="#FFD521"/>
<stop offset="0.501119" stop-color="#F50000"/>
<stop offset="0.95" stop-color="#B900B4"/>
<stop offset="0.950079" stop-color="#B900B4"/>
<stop offset="1" stop-color="#B900B4"/>
</linearGradient>
<linearGradient id="paint2_linear_230_2223" x1="16.2215" y1="39.782" x2="38.0187" y2="17.9848" gradientUnits="userSpaceOnUse">
<stop stop-color="#FFD521"/>
<stop offset="0.05" stop-color="#FFD521"/>
<stop offset="0.501119" stop-color="#F50000"/>
<stop offset="0.95" stop-color="#B900B4"/>
<stop offset="0.950079" stop-color="#B900B4"/>
<stop offset="1" stop-color="#B900B4"/>
</linearGradient>
</defs>
</svg>
