<svg width="24" height="24" viewBox="0 0 24 24" fill="none" xmlns="http://www.w3.org/2000/svg">
<rect width="24" height="24" rx="4" fill="#F1F1FE"/>
<path d="M18 11.9997L10 11.9997M18 7.99968L10 7.99967M18 15.9997L10 15.9997M7.33333 11.9997C7.33333 12.3679 7.03486 12.6663 6.66667 12.6663C6.29848 12.6663 6 12.3679 6 11.9997C6 11.6315 6.29848 11.333 6.66667 11.333C7.03486 11.333 7.33333 11.6315 7.33333 11.9997ZM7.33333 7.99967C7.33333 8.36786 7.03486 8.66634 6.66667 8.66634C6.29848 8.66634 6 8.36786 6 7.99967C6 7.63148 6.29848 7.33301 6.66667 7.33301C7.03486 7.33301 7.33333 7.63148 7.33333 7.99967ZM7.33333 15.9997C7.33333 16.3679 7.03486 16.6663 6.66667 16.6663C6.29848 16.6663 6 16.3679 6 15.9997C6 15.6315 6.29848 15.333 6.66667 15.333C7.03486 15.333 7.33333 15.6315 7.33333 15.9997Z" stroke="#4D49FC" stroke-width="1.5" stroke-linecap="round" stroke-linejoin="round"/>
</svg>
