<svg width="56" height="56" viewBox="0 0 56 56" fill="none" xmlns="http://www.w3.org/2000/svg">
<rect width="56" height="56" rx="8" fill="#F5F7FF"/>
<g clip-path="url(#clip0_228_2188)">
<path d="M28 40C34.6274 40 40 34.6274 40 28C40 21.3726 34.6274 16 28 16C21.3726 16 16 21.3726 16 28C16 34.6274 21.3726 40 28 40Z" fill="url(#paint0_linear_228_2188)"/>
<path fill-rule="evenodd" clip-rule="evenodd" d="M21.431 27.873C24.9293 26.3488 27.262 25.344 28.4292 24.8586C31.7617 23.4725 32.4542 23.2317 32.9055 23.2237C33.0048 23.222 33.2267 23.2466 33.3705 23.3632C33.4919 23.4617 33.5253 23.5948 33.5413 23.6882C33.5573 23.7816 33.5772 23.9944 33.5614 24.1606C33.3808 26.0581 32.5994 30.6628 32.2018 32.788C32.0336 33.6872 31.7024 33.9888 31.3817 34.0183C30.6849 34.0824 30.1557 33.5577 29.4808 33.1153C28.4246 32.423 27.8279 31.992 26.8028 31.3164C25.618 30.5357 26.386 30.1066 27.0612 29.4053C27.2379 29.2217 30.3083 26.429 30.3677 26.1756C30.3752 26.144 30.3821 26.0258 30.3119 25.9635C30.2417 25.9011 30.1382 25.9224 30.0635 25.9394C29.9575 25.9634 28.2703 27.0786 25.0018 29.285C24.5229 29.6138 24.0891 29.7741 23.7004 29.7657C23.272 29.7564 22.4478 29.5234 21.8351 29.3242C21.0836 29.08 20.4863 28.9508 20.5383 28.5359C20.5654 28.3198 20.863 28.0989 21.431 27.873Z" fill="white"/>
</g>
<defs>
<linearGradient id="paint0_linear_228_2188" x1="28" y1="16" x2="28" y2="39.822" gradientUnits="userSpaceOnUse">
<stop stop-color="#2AABEE"/>
<stop offset="1" stop-color="#229ED9"/>
</linearGradient>
<clipPath id="clip0_228_2188">
<rect width="24" height="24" fill="white" transform="translate(16 16)"/>
</clipPath>
</defs>
</svg>
