<svg width="24" height="24" viewBox="0 0 24 24" fill="none" xmlns="http://www.w3.org/2000/svg">
<rect width="24" height="24" rx="4" fill="#F1F1FE"/>
<path d="M18.6673 9.95392C18.6673 9.55004 18.6673 9.34811 18.5875 9.2546C18.5182 9.17346 18.4142 9.1304 18.3078 9.13877C18.1852 9.14842 18.0424 9.29121 17.7569 9.5768L15.334 11.9997L17.7569 14.4226C18.0424 14.7081 18.1852 14.8509 18.3078 14.8606C18.4142 14.8689 18.5182 14.8259 18.5875 14.7448C18.6673 14.6512 18.6673 14.4493 18.6673 14.0454V9.95392Z" stroke="#4D49FC" stroke-width="1.5" stroke-linecap="round" stroke-linejoin="round"/>
<path d="M5.33398 10.533C5.33398 9.4129 5.33398 8.85285 5.55197 8.42503C5.74372 8.0487 6.04968 7.74274 6.426 7.55099C6.85383 7.33301 7.41388 7.33301 8.53398 7.33301H12.134C13.2541 7.33301 13.8141 7.33301 14.242 7.55099C14.6183 7.74274 14.9243 8.0487 15.116 8.42503C15.334 8.85285 15.334 9.4129 15.334 10.533V13.4663C15.334 14.5864 15.334 15.1465 15.116 15.5743C14.9243 15.9506 14.6183 16.2566 14.242 16.4484C13.8141 16.6663 13.2541 16.6663 12.134 16.6663H8.53398C7.41388 16.6663 6.85383 16.6663 6.426 16.4484C6.04968 16.2566 5.74372 15.9506 5.55197 15.5743C5.33398 15.1465 5.33398 14.5864 5.33398 13.4663V10.533Z" stroke="#4D49FC" stroke-width="1.5" stroke-linecap="round" stroke-linejoin="round"/>
</svg>
