<svg width="33" height="13" viewBox="0 0 33 13" fill="none" xmlns="http://www.w3.org/2000/svg">
<g clip-path="url(#clip0_6138_7131)">
<path d="M1.90694 8.30726C1.93554 8.4391 2.21197 8.80307 2.33589 8.91078C2.5599 9.10576 2.88971 9.25525 3.19093 9.28496C3.87915 9.35088 5.41097 9.21346 6.00101 8.86064C6.31271 8.67401 6.58724 8.19862 6.58533 7.84301C6.58438 7.63596 6.21357 2.3575 6.29841 1.62863C6.37276 0.990762 6.9323 0.227544 7.59955 0.110554C8.49271 -0.0454318 9.67661 0.0353467 10.5669 6.41326e-05C10.7318 -0.00643529 11.4553 0.482879 11.7746 0.644436L11.8671 5.84676C12.1178 6.33515 13.4142 6.32308 13.8193 6.07517C14.2959 5.7827 14.1615 4.52738 14.2006 4.03249C14.2282 3.68338 14.3274 3.23492 14.5037 2.93502C14.7391 2.53484 15.3025 2.10402 15.781 2.04367C16.1184 2.00096 18.5139 2.00003 18.6845 2.08452L20.019 3.38441L20.0161 6.91081C19.8408 7.51618 19.3203 8.13363 18.6883 8.31004C18.3213 8.41218 16.5055 8.40011 16.0832 8.33233C15.5904 8.2534 15.2605 8.02592 15.0137 7.60903C14.8287 7.55982 14.7287 7.88294 14.6133 7.98321C14.091 8.43446 12.3656 8.44839 11.6803 8.34997C11.1484 8.2729 10.6117 7.85508 10.3734 7.39455C9.86916 6.41871 9.81101 2.04645 9.81101 2.04645L8.65857 2.09938L8.43361 2.32779L8.38309 8.67122C8.30112 9.35459 7.93699 9.96554 7.38889 10.3954C6.15638 11.362 3.03079 11.6823 1.65148 10.9702C0.996623 10.6322 0.438991 10.0166 0.172091 9.34717C0.139681 9.26639 0.00146484 8.88942 0.00146484 8.86342V4.4531L1.75443 4.37139L1.9079 4.49952V8.30633L1.90694 8.30726ZM16.4616 3.72888C16.208 3.78273 16.0536 3.97957 16.0165 4.22376C15.9602 4.59423 15.8773 5.26367 15.9154 5.61742C15.9707 6.13181 16.2481 6.18566 16.7247 6.22187C17.0821 6.2488 18.1679 6.28129 18.287 5.87833C18.2765 5.3463 18.3528 4.74186 18.307 4.21726C18.2908 4.03528 18.1879 3.8403 18.0173 3.75673C17.8466 3.67317 16.6951 3.67967 16.4626 3.72888H16.4616Z" fill="#0C5355"/>
<path d="M32.6001 2.50457V6.5435C32.6001 6.5695 32.4619 6.94553 32.4295 7.02724C31.6269 9.04763 28.9979 8.15814 27.2707 8.36241C27.1048 8.67438 27.2039 9.00214 27.1601 9.32247C26.9818 10.6214 25.7541 11.2184 24.594 11.5583C24.0345 11.7217 22.9907 12.0086 22.4407 12.0643C22.2653 12.0819 22.0966 12.1005 22.0356 11.912L21.6419 10.1739C21.6772 10.0467 25.0287 9.71336 25.4376 9.03835C25.5549 8.84522 25.5625 8.66695 25.5453 8.4469H22.8287C22.7572 8.4469 22.2386 8.26306 22.1424 8.18692C21.1462 7.40421 21.3502 3.7571 21.3502 3.7571C21.3502 3.7571 22.6113 2.63363 22.9392 2.33373C24.2814 2.38015 26.4833 1.88898 27.0752 3.47577C27.1143 3.57976 27.2621 4.16471 27.2621 4.22227V6.07925L27.4985 6.22038C28.324 6.1526 29.2696 6.30395 30.0779 6.22131C30.8862 6.13868 30.7261 5.26311 30.6984 4.58903C30.6898 4.38197 30.5478 3.06723 30.5964 2.73391C30.6126 2.62434 30.6508 2.56678 30.7413 2.50364H32.6001V2.50457ZM25.451 6.49707V4.59367C25.451 4.46461 25.1631 4.0505 25.0068 4.00501C24.4968 4.04772 23.1842 3.73667 23.067 4.40704C23.0279 4.63267 23.0403 6.0774 23.1146 6.21946C23.1347 6.25752 23.3815 6.49707 23.4016 6.49707H25.451Z" fill="#0C5355"/>
<path d="M32.4092 1.29689L28.0234 1.38974L28.114 0.0378607L32.0565 0.0146484C32.6418 0.137209 32.3415 0.843789 32.4092 1.29689Z" fill="#0C5355"/>
<path d="M2.95508 2.55038C2.99988 2.5021 3.04182 2.44268 3.1095 2.42225C3.27155 2.37304 4.50119 2.37861 4.72043 2.40925C4.83291 2.42504 4.89201 2.46218 4.95683 2.55038V3.94312C4.91203 3.9914 4.87009 4.05082 4.80241 4.07125C4.64036 4.12046 3.41072 4.11489 3.19148 4.08425C3.079 4.06846 3.0199 4.03132 2.95508 3.94312V2.55038Z" fill="#0C5355"/>
</g>
<defs>
<clipPath id="clip0_6138_7131">
<rect width="32.6" height="12.0741" fill="white"/>
</clipPath>
</defs>
</svg>
