<svg width="1600" height="751" viewBox="0 0 1600 751" fill="none" xmlns="http://www.w3.org/2000/svg">
<rect y="750" width="1600" height="1" fill="url(#paint0_linear_1604_19272)"/>
<mask id="mask0_1604_19272" style="mask-type:alpha" maskUnits="userSpaceOnUse" x="0" y="0" width="1600" height="750">
<rect width="1600" height="750" fill="white"/>
</mask>
<g mask="url(#mask0_1604_19272)">
<circle cx="800.458" cy="671.544" r="240.27" stroke="url(#paint1_radial_1604_19272)" stroke-width="49"/>
<circle cx="800" cy="672" r="290" stroke="url(#paint2_radial_1604_19272)" stroke-width="58"/>
<g filter="url(#filter0_f_1604_19272)">
<circle cx="800.452" cy="671.544" r="190.944" fill="url(#paint3_linear_1604_19272)"/>
</g>
<g filter="url(#filter1_f_1604_19272)">
<circle cx="800.452" cy="671.544" r="190.944" fill="url(#paint4_linear_1604_19272)"/>
</g>
<g filter="url(#filter2_f_1604_19272)">
<circle cx="800.452" cy="671.544" r="190.944" fill="url(#paint5_linear_1604_19272)"/>
</g>
<g filter="url(#filter3_i_1604_19272)">
<path d="M775.395 608.2C775.395 608.2 774.18 626.396 783.918 636.134C793.656 645.872 811.852 644.657 811.852 644.657C811.852 644.657 793.656 643.442 783.918 653.18C774.18 662.919 775.395 681.114 775.395 681.114C775.395 681.114 776.61 662.919 766.872 653.18C757.133 643.442 738.938 644.657 738.938 644.657C738.938 644.657 757.133 645.872 766.872 636.134C776.61 626.396 775.395 608.2 775.395 608.2Z" fill="#F8E7FC"/>
</g>
<g filter="url(#filter4_i_1604_19272)">
<path d="M738.937 650.126C738.937 650.126 738.39 658.314 742.772 662.696C747.155 667.078 755.343 666.532 755.343 666.532C755.343 666.532 747.155 665.985 742.772 670.367C738.39 674.749 738.937 682.937 738.937 682.937C738.937 682.937 739.484 674.749 735.102 670.367C730.719 665.985 722.531 666.532 722.531 666.532C722.531 666.532 730.719 667.078 735.102 662.696C739.484 658.314 738.937 650.126 738.937 650.126Z" fill="#F8E7FC"/>
</g>
<g filter="url(#filter5_i_1604_19272)">
<path d="M805.468 650.126C805.468 650.126 805.104 655.585 808.025 658.506C810.947 661.428 816.406 661.063 816.406 661.063C816.406 661.063 810.947 660.699 808.025 663.62C805.104 666.542 805.468 672 805.468 672C805.468 672 805.833 666.542 802.911 663.62C799.99 660.699 794.531 661.063 794.531 661.063C794.531 661.063 799.99 661.428 802.911 658.506C805.833 655.585 805.468 650.126 805.468 650.126Z" fill="#F8E7FC"/>
</g>
<g filter="url(#filter6_i_1604_19272)">
<path d="M568.494 458.726C568.494 458.726 568.16 463.729 570.838 466.407C573.516 469.085 578.52 468.751 578.52 468.751C578.52 468.751 573.516 468.417 570.838 471.095C568.16 473.773 568.494 478.777 568.494 478.777C568.494 478.777 568.829 473.773 566.151 471.095C563.473 468.417 558.469 468.751 558.469 468.751C558.469 468.751 563.473 469.085 566.151 466.407C568.829 463.729 568.494 458.726 568.494 458.726Z" fill="#4D49FC"/>
</g>
<g filter="url(#filter7_i_1604_19272)">
<path d="M1006.89 468.751C1006.89 468.751 1006.56 473.755 1009.24 476.433C1011.91 479.111 1016.92 478.777 1016.92 478.777C1016.92 478.777 1011.91 478.443 1009.24 481.121C1006.56 483.799 1006.89 488.802 1006.89 488.802C1006.89 488.802 1007.23 483.799 1004.55 481.121C1001.87 478.443 996.867 478.777 996.867 478.777C996.867 478.777 1001.87 479.111 1004.55 476.433C1007.23 473.755 1006.89 468.751 1006.89 468.751Z" fill="#4D49FC"/>
</g>
</g>
<defs>
<filter id="filter0_f_1604_19272" x="533.508" y="404.6" width="533.891" height="533.889" filterUnits="userSpaceOnUse" color-interpolation-filters="sRGB">
<feFlood flood-opacity="0" result="BackgroundImageFix"/>
<feBlend mode="normal" in="SourceGraphic" in2="BackgroundImageFix" result="shape"/>
<feGaussianBlur stdDeviation="38" result="effect1_foregroundBlur_1604_19272"/>
</filter>
<filter id="filter1_f_1604_19272" x="533.508" y="404.6" width="533.891" height="533.889" filterUnits="userSpaceOnUse" color-interpolation-filters="sRGB">
<feFlood flood-opacity="0" result="BackgroundImageFix"/>
<feBlend mode="normal" in="SourceGraphic" in2="BackgroundImageFix" result="shape"/>
<feGaussianBlur stdDeviation="38" result="effect1_foregroundBlur_1604_19272"/>
</filter>
<filter id="filter2_f_1604_19272" x="533.508" y="404.6" width="533.891" height="533.889" filterUnits="userSpaceOnUse" color-interpolation-filters="sRGB">
<feFlood flood-opacity="0" result="BackgroundImageFix"/>
<feBlend mode="normal" in="SourceGraphic" in2="BackgroundImageFix" result="shape"/>
<feGaussianBlur stdDeviation="38" result="effect1_foregroundBlur_1604_19272"/>
</filter>
<filter id="filter3_i_1604_19272" x="738.938" y="608.2" width="72.9141" height="79.9141" filterUnits="userSpaceOnUse" color-interpolation-filters="sRGB">
<feFlood flood-opacity="0" result="BackgroundImageFix"/>
<feBlend mode="normal" in="SourceGraphic" in2="BackgroundImageFix" result="shape"/>
<feColorMatrix in="SourceAlpha" type="matrix" values="0 0 0 0 0 0 0 0 0 0 0 0 0 0 0 0 0 0 127 0" result="hardAlpha"/>
<feOffset dy="7"/>
<feGaussianBlur stdDeviation="6"/>
<feComposite in2="hardAlpha" operator="arithmetic" k2="-1" k3="1"/>
<feColorMatrix type="matrix" values="0 0 0 0 1 0 0 0 0 1 0 0 0 0 1 0 0 0 1 0"/>
<feBlend mode="normal" in2="shape" result="effect1_innerShadow_1604_19272"/>
</filter>
<filter id="filter4_i_1604_19272" x="722.531" y="650.126" width="32.8125" height="39.8115" filterUnits="userSpaceOnUse" color-interpolation-filters="sRGB">
<feFlood flood-opacity="0" result="BackgroundImageFix"/>
<feBlend mode="normal" in="SourceGraphic" in2="BackgroundImageFix" result="shape"/>
<feColorMatrix in="SourceAlpha" type="matrix" values="0 0 0 0 0 0 0 0 0 0 0 0 0 0 0 0 0 0 127 0" result="hardAlpha"/>
<feOffset dy="7"/>
<feGaussianBlur stdDeviation="6"/>
<feComposite in2="hardAlpha" operator="arithmetic" k2="-1" k3="1"/>
<feColorMatrix type="matrix" values="0 0 0 0 1 0 0 0 0 1 0 0 0 0 1 0 0 0 1 0"/>
<feBlend mode="normal" in2="shape" result="effect1_innerShadow_1604_19272"/>
</filter>
<filter id="filter5_i_1604_19272" x="794.531" y="650.126" width="21.875" height="28.874" filterUnits="userSpaceOnUse" color-interpolation-filters="sRGB">
<feFlood flood-opacity="0" result="BackgroundImageFix"/>
<feBlend mode="normal" in="SourceGraphic" in2="BackgroundImageFix" result="shape"/>
<feColorMatrix in="SourceAlpha" type="matrix" values="0 0 0 0 0 0 0 0 0 0 0 0 0 0 0 0 0 0 127 0" result="hardAlpha"/>
<feOffset dy="7"/>
<feGaussianBlur stdDeviation="6"/>
<feComposite in2="hardAlpha" operator="arithmetic" k2="-1" k3="1"/>
<feColorMatrix type="matrix" values="0 0 0 0 1 0 0 0 0 1 0 0 0 0 1 0 0 0 1 0"/>
<feBlend mode="normal" in2="shape" result="effect1_innerShadow_1604_19272"/>
</filter>
<filter id="filter6_i_1604_19272" x="558.469" y="458.726" width="20.0547" height="23.0518" filterUnits="userSpaceOnUse" color-interpolation-filters="sRGB">
<feFlood flood-opacity="0" result="BackgroundImageFix"/>
<feBlend mode="normal" in="SourceGraphic" in2="BackgroundImageFix" result="shape"/>
<feColorMatrix in="SourceAlpha" type="matrix" values="0 0 0 0 0 0 0 0 0 0 0 0 0 0 0 0 0 0 127 0" result="hardAlpha"/>
<feOffset dy="3"/>
<feGaussianBlur stdDeviation="6"/>
<feComposite in2="hardAlpha" operator="arithmetic" k2="-1" k3="1"/>
<feColorMatrix type="matrix" values="0 0 0 0 1 0 0 0 0 1 0 0 0 0 1 0 0 0 0.6 0"/>
<feBlend mode="normal" in2="shape" result="effect1_innerShadow_1604_19272"/>
</filter>
<filter id="filter7_i_1604_19272" x="996.867" y="468.751" width="20.0547" height="23.0518" filterUnits="userSpaceOnUse" color-interpolation-filters="sRGB">
<feFlood flood-opacity="0" result="BackgroundImageFix"/>
<feBlend mode="normal" in="SourceGraphic" in2="BackgroundImageFix" result="shape"/>
<feColorMatrix in="SourceAlpha" type="matrix" values="0 0 0 0 0 0 0 0 0 0 0 0 0 0 0 0 0 0 127 0" result="hardAlpha"/>
<feOffset dy="3"/>
<feGaussianBlur stdDeviation="6"/>
<feComposite in2="hardAlpha" operator="arithmetic" k2="-1" k3="1"/>
<feColorMatrix type="matrix" values="0 0 0 0 1 0 0 0 0 1 0 0 0 0 1 0 0 0 0.6 0"/>
<feBlend mode="normal" in2="shape" result="effect1_innerShadow_1604_19272"/>
</filter>
<linearGradient id="paint0_linear_1604_19272" x1="0" y1="750.5" x2="1600" y2="750.5" gradientUnits="userSpaceOnUse">
<stop stop-color="white"/>
<stop offset="0.5" stop-color="#EBEBEB"/>
<stop offset="1" stop-color="white"/>
</linearGradient>
<radialGradient id="paint1_radial_1604_19272" cx="0" cy="0" r="1" gradientUnits="userSpaceOnUse" gradientTransform="translate(800.458 671.149) rotate(89.9145) scale(265.166 264.77)">
<stop offset="0.860577" stop-color="white"/>
<stop offset="1" stop-color="#FAFAFC"/>
</radialGradient>
<radialGradient id="paint2_radial_1604_19272" cx="0" cy="0" r="1" gradientUnits="userSpaceOnUse" gradientTransform="translate(800 671.523) rotate(89.9145) scale(319.477 319)">
<stop offset="0.860577" stop-color="white"/>
<stop offset="1" stop-color="#FAFAFC"/>
</radialGradient>
<linearGradient id="paint3_linear_1604_19272" x1="609.508" y1="583.972" x2="991.396" y2="759.115" gradientUnits="userSpaceOnUse">
<stop stop-color="white" stop-opacity="0"/>
<stop offset="1" stop-color="#FC49C3" stop-opacity="0.5"/>
</linearGradient>
<linearGradient id="paint4_linear_1604_19272" x1="609.508" y1="480.6" x2="991.396" y2="862.488" gradientUnits="userSpaceOnUse">
<stop stop-color="white" stop-opacity="0"/>
<stop offset="1" stop-color="#FC49EA" stop-opacity="0.5"/>
</linearGradient>
<linearGradient id="paint5_linear_1604_19272" x1="800.452" y1="480.6" x2="800.452" y2="862.488" gradientUnits="userSpaceOnUse">
<stop offset="0.259615" stop-color="white" stop-opacity="0"/>
<stop offset="1" stop-color="#4D49FC"/>
</linearGradient>
</defs>
</svg>
