<svg width="44" height="44" viewBox="0 0 44 44" fill="none" xmlns="http://www.w3.org/2000/svg">
<rect x="1" y="1" width="42" height="42" rx="21" fill="white" fill-opacity="0.3"/>
<rect x="1" y="1" width="42" height="42" rx="21" stroke="#F0F0F2" stroke-width="2"/>
<path d="M25.334 15.3337C26.109 15.3337 26.4964 15.3337 26.8144 15.4188C27.6771 15.65 28.351 16.3239 28.5821 17.1866C28.6673 17.5045 28.6673 17.892 28.6673 18.667V26.3337C28.6673 27.7338 28.6673 28.4339 28.3948 28.9686C28.1552 29.439 27.7727 29.8215 27.3023 30.0612C26.7675 30.3337 26.0674 30.3337 24.6673 30.3337H19.334C17.9339 30.3337 17.2338 30.3337 16.699 30.0612C16.2286 29.8215 15.8462 29.439 15.6065 28.9686C15.334 28.4339 15.334 27.7338 15.334 26.3337V18.667C15.334 17.892 15.334 17.5045 15.4192 17.1866C15.6503 16.3239 16.3242 15.65 17.1869 15.4188C17.5049 15.3337 17.8923 15.3337 18.6673 15.3337M22.0007 24.917V21.167C22.0007 20.4766 22.5603 19.917 23.2507 19.917C23.941 19.917 24.5007 20.4766 24.5007 21.167V24.917C24.5007 26.2977 23.3814 27.417 22.0007 27.417C20.6199 27.417 19.5007 26.2977 19.5007 24.917V21.5837M20.0007 17.0003H24.0007C24.4674 17.0003 24.7007 17.0003 24.879 16.9095C25.0358 16.8296 25.1633 16.7021 25.2432 16.5453C25.334 16.3671 25.334 16.1337 25.334 15.667V15.0003C25.334 14.5336 25.334 14.3003 25.2432 14.122C25.1633 13.9652 25.0358 13.8377 24.879 13.7578C24.7007 13.667 24.4674 13.667 24.0007 13.667H20.0007C19.5339 13.667 19.3006 13.667 19.1223 13.7578C18.9655 13.8377 18.838 13.9652 18.7581 14.122C18.6673 14.3003 18.6673 14.5336 18.6673 15.0003V15.667C18.6673 16.1337 18.6673 16.3671 18.7581 16.5453C18.838 16.7021 18.9655 16.8296 19.1223 16.9095C19.3006 17.0003 19.5339 17.0003 20.0007 17.0003Z" stroke="#66666E" stroke-width="1.7" stroke-linecap="round" stroke-linejoin="round"/>
</svg>
