<svg width="20" height="20" viewBox="0 0 20 20" fill="none" xmlns="http://www.w3.org/2000/svg">
<path d="M16.6666 5.16691C16.6666 4.68645 16.6655 4.37601 16.6462 4.1399C16.6277 3.91357 16.5964 3.82953 16.5754 3.78833C16.4956 3.63169 16.3683 3.50443 16.2117 3.42456C16.1705 3.40357 16.0864 3.37226 15.8601 3.35376C15.624 3.33447 15.3135 3.33342 14.8331 3.33342H11.8334C11.353 3.33342 11.0425 3.33447 10.8064 3.35376C10.5801 3.37226 10.496 3.40357 10.4548 3.42456C10.2982 3.50443 10.1709 3.63169 10.0911 3.78833C10.0701 3.82953 10.0388 3.91357 10.0203 4.1399C10.001 4.37601 9.99992 4.68645 9.99992 5.16691V16.6668H16.6666V5.16691ZM14.5833 11.6668C15.0435 11.6668 15.4166 12.0398 15.4166 12.5001C15.4166 12.9603 15.0435 13.3334 14.5833 13.3334H12.0833C11.623 13.3334 11.2499 12.9603 11.2499 12.5001C11.2499 12.0398 11.623 11.6668 12.0833 11.6668H14.5833ZM14.5833 8.33342C15.0435 8.33342 15.4166 8.70651 15.4166 9.16675C15.4166 9.62699 15.0435 10.0001 14.5833 10.0001H12.0833C11.623 10.0001 11.2499 9.62699 11.2499 9.16675C11.2499 8.70651 11.623 8.33342 12.0833 8.33342H14.5833ZM14.5833 5.00008C15.0435 5.00008 15.4166 5.37318 15.4166 5.83342C15.4166 6.29366 15.0435 6.66675 14.5833 6.66675H12.0833C11.623 6.66675 11.2499 6.29366 11.2499 5.83342C11.2499 5.37318 11.623 5.00008 12.0833 5.00008H14.5833ZM3.33325 16.6668H8.33325V10.0001H5.16675C4.68629 10.0001 4.37584 10.0011 4.13973 10.0204C3.91341 10.0389 3.82937 10.0702 3.78817 10.0912C3.63153 10.1711 3.50426 10.2984 3.4244 10.455C3.40341 10.4962 3.37209 10.5802 3.3536 10.8066C3.33431 11.0427 3.33325 11.3531 3.33325 11.8336V16.6668ZM18.3333 16.6668C18.7935 16.6668 19.1666 17.0398 19.1666 17.5001C19.1666 17.9603 18.7935 18.3334 18.3333 18.3334H1.66659C1.20635 18.3334 0.833252 17.9603 0.833252 17.5001C0.833252 17.0398 1.20635 16.6668 1.66659 16.6668V11.8336C1.66659 11.3806 1.66569 10.9904 1.69181 10.6707C1.71874 10.3413 1.77858 10.0134 1.93921 9.69816C2.17885 9.22798 2.56115 8.84569 3.03133 8.60604C3.34658 8.44542 3.67444 8.38557 4.00382 8.35865C4.32355 8.33252 4.71379 8.33342 5.16675 8.33342H8.33325V5.16691C8.33325 4.71395 8.33236 4.32372 8.35848 4.00399C8.38541 3.67461 8.44525 3.34675 8.60588 3.0315C8.84552 2.56131 9.22781 2.17902 9.698 1.93938C10.0132 1.77875 10.3411 1.71891 10.6705 1.69198C10.9902 1.66586 11.3805 1.66675 11.8334 1.66675H14.8331C15.286 1.66675 15.6763 1.66586 15.996 1.69198C16.3254 1.71891 16.6533 1.77875 16.9685 1.93938C17.4387 2.17902 17.821 2.56131 18.0606 3.0315C18.2213 3.34675 18.2811 3.67461 18.308 4.00399C18.3341 4.32372 18.3333 4.71395 18.3333 5.16691V16.6668Z" fill="#00A3A5"/>
</svg>
