<svg width="32" height="32" viewBox="0 0 32 32" fill="none" xmlns="http://www.w3.org/2000/svg">
<rect width="32" height="32" rx="16" fill="#F1F1FE"/>
<g clip-path="url(#clip0_1141_18786)">
<path d="M16.0007 22.6673C19.6825 22.6673 22.6673 19.6825 22.6673 16.0007C22.6673 12.3188 19.6825 9.33398 16.0007 9.33398C12.3188 9.33398 9.33398 12.3188 9.33398 16.0007C9.33398 19.6825 12.3188 22.6673 16.0007 22.6673Z" stroke="#4D49FC" stroke-width="1.5" stroke-linejoin="round"/>
<path d="M14.334 13.9775C14.334 13.6593 14.334 13.5003 14.4005 13.4114C14.4584 13.334 14.5471 13.2856 14.6436 13.2787C14.7542 13.2708 14.8881 13.3568 15.1557 13.5289L18.3028 15.552C18.535 15.7013 18.6512 15.776 18.6913 15.8709C18.7263 15.9539 18.7263 16.0474 18.6913 16.1304C18.6512 16.2253 18.535 16.3 18.3028 16.4493L15.1557 18.4724C14.8881 18.6445 14.7542 18.7305 14.6436 18.7226C14.5471 18.7157 14.4584 18.6673 14.4005 18.5899C14.334 18.501 14.334 18.342 14.334 18.0238V13.9775Z" stroke="#4D49FC" stroke-width="1.5" stroke-linejoin="round"/>
</g>
<defs>
<clipPath id="clip0_1141_18786">
<rect width="16" height="16" fill="white" transform="translate(8 8)"/>
</clipPath>
</defs>
</svg>
