<svg width="56" height="56" viewBox="0 0 56 56" fill="none" xmlns="http://www.w3.org/2000/svg">
<rect width="56" height="56" rx="28" fill="#F1F1FE"/>
<path d="M28 38C33.5228 38 38 33.5228 38 28C38 22.4772 33.5228 18 28 18C22.4772 18 18 22.4772 18 28C18 33.5228 22.4772 38 28 38Z" stroke="#4D49FC" stroke-width="2" stroke-linejoin="round"/>
<path d="M25.5 24.9653C25.5 24.488 25.5 24.2494 25.5997 24.1162C25.6867 24.0001 25.8197 23.9274 25.9644 23.9171C26.1304 23.9052 26.3311 24.0343 26.7326 24.2924L31.4532 27.3271C31.8016 27.551 31.9758 27.663 32.0359 27.8054C32.0885 27.9298 32.0885 28.0702 32.0359 28.1946C31.9758 28.337 31.8016 28.449 31.4532 28.6729L26.7326 31.7076C26.3311 31.9657 26.1304 32.0948 25.9644 32.0829C25.8197 32.0726 25.6867 31.9999 25.5997 31.8838C25.5 31.7506 25.5 31.512 25.5 31.0347V24.9653Z" stroke="#4D49FC" stroke-width="2" stroke-linejoin="round"/>
</svg>
