<svg width="56" height="56" viewBox="0 0 56 56" fill="none" xmlns="http://www.w3.org/2000/svg">
<rect x="1" y="1" width="54" height="54" rx="27" stroke="#F0F0F2" stroke-width="2"/>
<path d="M28 38C33.5228 38 38 33.5228 38 28C38 22.4772 33.5228 18 28 18C22.4772 18 18 22.4772 18 28C18 33.5228 22.4772 38 28 38Z" stroke="#111113" stroke-width="2" stroke-linecap="round" stroke-linejoin="round"/>
<path d="M24 25.6C24 25.0399 24 24.7599 24.109 24.546C24.2049 24.3578 24.3578 24.2049 24.546 24.109C24.7599 24 25.0399 24 25.6 24H30.4C30.9601 24 31.2401 24 31.454 24.109C31.6422 24.2049 31.7951 24.3578 31.891 24.546C32 24.7599 32 25.0399 32 25.6V30.4C32 30.9601 32 31.2401 31.891 31.454C31.7951 31.6422 31.6422 31.7951 31.454 31.891C31.2401 32 30.9601 32 30.4 32H25.6C25.0399 32 24.7599 32 24.546 31.891C24.3578 31.7951 24.2049 31.6422 24.109 31.454C24 31.2401 24 30.9601 24 30.4V25.6Z" stroke="#111113" stroke-width="2" stroke-linecap="round" stroke-linejoin="round"/>
</svg>
