<svg width="32" height="32" viewBox="0 0 32 32" fill="none" xmlns="http://www.w3.org/2000/svg">
<rect x="1" y="1" width="30" height="30" rx="7" stroke="#F0F0F2" stroke-width="2"/>
<path d="M18.6667 11.9997V11.4663C18.6667 10.7196 18.6667 10.3462 18.5213 10.061C18.3935 9.81014 18.1895 9.60616 17.9387 9.47833C17.6534 9.33301 17.2801 9.33301 16.5333 9.33301H15.4667C14.7199 9.33301 14.3466 9.33301 14.0613 9.47833C13.8105 9.60616 13.6065 9.81014 13.4787 10.061C13.3333 10.3462 13.3333 10.7196 13.3333 11.4663V11.9997M14.6667 15.6663V18.9997M17.3333 15.6663V18.9997M10 11.9997H22M20.6667 11.9997V19.4663C20.6667 20.5864 20.6667 21.1465 20.4487 21.5743C20.2569 21.9506 19.951 22.2566 19.5746 22.4484C19.1468 22.6663 18.5868 22.6663 17.4667 22.6663H14.5333C13.4132 22.6663 12.8532 22.6663 12.4254 22.4484C12.049 22.2566 11.7431 21.9506 11.5513 21.5743C11.3333 21.1465 11.3333 20.5864 11.3333 19.4663V11.9997" stroke="#111113" stroke-width="1.5" stroke-linecap="round" stroke-linejoin="round"/>
</svg>
