<svg width="24" height="24" viewBox="0 0 24 24" fill="none" xmlns="http://www.w3.org/2000/svg">
<rect width="24" height="24" rx="12" fill="#F0F0F2"/>
<path d="M14.6667 7.99967V7.46634C14.6667 6.7196 14.6667 6.34624 14.5213 6.06102C14.3935 5.81014 14.1895 5.60616 13.9387 5.47833C13.6534 5.33301 13.2801 5.33301 12.5333 5.33301H11.4667C10.7199 5.33301 10.3466 5.33301 10.0613 5.47833C9.81046 5.60616 9.60649 5.81014 9.47866 6.06102C9.33333 6.34624 9.33333 6.7196 9.33333 7.46634V7.99967M10.6667 11.6663V14.9997M13.3333 11.6663V14.9997M6 7.99967H18M16.6667 7.99967V15.4663C16.6667 16.5864 16.6667 17.1465 16.4487 17.5743C16.2569 17.9506 15.951 18.2566 15.5746 18.4484C15.1468 18.6663 14.5868 18.6663 13.4667 18.6663H10.5333C9.41323 18.6663 8.85318 18.6663 8.42535 18.4484C8.04903 18.2566 7.74307 17.9506 7.55132 17.5743C7.33333 17.1465 7.33333 16.5864 7.33333 15.4663V7.99967" stroke="#EC2C27" stroke-width="1.5" stroke-linecap="round" stroke-linejoin="round"/>
</svg>
