<svg width="32" height="32" viewBox="0 0 32 32" fill="none" xmlns="http://www.w3.org/2000/svg">
<rect x="1" y="1" width="30" height="30" rx="7" stroke="#F0F0F2" stroke-width="2"/>
<path d="M13 10H17.7333C19.2268 10 19.9735 10 20.544 10.2906C21.0457 10.5463 21.4537 10.9543 21.7094 11.456C22 12.0265 22 12.7732 22 14.2667V19M12.1333 22H17.5333C18.2801 22 18.6534 22 18.9387 21.8547C19.1895 21.7268 19.3935 21.5229 19.5213 21.272C19.6667 20.9868 19.6667 20.6134 19.6667 19.8667V14.4667C19.6667 13.7199 19.6667 13.3466 19.5213 13.0613C19.3935 12.8105 19.1895 12.6065 18.9387 12.4787C18.6534 12.3333 18.2801 12.3333 17.5333 12.3333H12.1333C11.3866 12.3333 11.0132 12.3333 10.728 12.4787C10.4771 12.6065 10.2732 12.8105 10.1453 13.0613C10 13.3466 10 13.7199 10 14.4667V19.8667C10 20.6134 10 20.9868 10.1453 21.272C10.2732 21.5229 10.4771 21.7268 10.728 21.8547C11.0132 22 11.3866 22 12.1333 22Z" stroke="#111113" stroke-width="1.5" stroke-linecap="round" stroke-linejoin="round"/>
</svg>
