<svg width="32" height="32" viewBox="0 0 32 32" fill="none" xmlns="http://www.w3.org/2000/svg">
<rect width="32" height="32" rx="4" fill="#F1F1FE"/>
<path d="M22.9992 25H24.0095C24.9807 25 25.4663 25 25.7339 24.7975C25.9671 24.6211 26.1114 24.3515 26.1289 24.0596C26.1489 23.7246 25.8795 23.3205 25.3408 22.5125L22.3304 17.9969C21.8853 17.3292 21.6628 16.9954 21.3822 16.8791C21.137 16.7773 20.8613 16.7773 20.6161 16.8791C20.3356 16.9954 20.113 17.3292 19.6679 17.9969L18.9237 19.1132M22.9992 25L15.3147 13.9002C14.8727 13.2618 14.6518 12.9426 14.3757 12.8304C14.1343 12.7323 13.864 12.7323 13.6226 12.8304C13.3466 12.9426 13.1256 13.2618 12.6837 13.9002L6.73736 22.4893C6.17434 23.3025 5.89282 23.7092 5.90885 24.0473C5.92281 24.3419 6.06603 24.6152 6.30024 24.7943C6.56917 25 7.06373 25 8.05287 25H22.9992ZM24.9992 10C24.9992 11.6569 23.656 13 21.9992 13C20.3423 13 18.9992 11.6569 18.9992 10C18.9992 8.34315 20.3423 7 21.9992 7C23.656 7 24.9992 8.34315 24.9992 10Z" stroke="#4D49FC" stroke-width="1.8" stroke-linecap="round" stroke-linejoin="round"/>
</svg>
