<svg width="32" height="32" viewBox="0 0 32 32" fill="none" xmlns="http://www.w3.org/2000/svg">
<rect width="32" height="32" rx="4" fill="#F1F1FE"/>
<path d="M26 12.9314C26 12.3256 26 12.0226 25.8802 11.8824C25.7763 11.7607 25.6203 11.6961 25.4608 11.7086C25.2769 11.7231 25.0627 11.9373 24.6343 12.3657L21 16L24.6343 19.6343C25.0627 20.0627 25.2769 20.2769 25.4608 20.2914C25.6203 20.3039 25.7763 20.2393 25.8802 20.1176C26 19.9774 26 19.6744 26 19.0686V12.9314Z" stroke="#4D49FC" stroke-width="1.8" stroke-linecap="round" stroke-linejoin="round"/>
<path d="M6 13.8C6 12.1198 6 11.2798 6.32698 10.638C6.6146 10.0735 7.07354 9.6146 7.63803 9.32698C8.27976 9 9.11984 9 10.8 9H16.2C17.8802 9 18.7202 9 19.362 9.32698C19.9265 9.6146 20.3854 10.0735 20.673 10.638C21 11.2798 21 12.1198 21 13.8V18.2C21 19.8802 21 20.7202 20.673 21.362C20.3854 21.9265 19.9265 22.3854 19.362 22.673C18.7202 23 17.8802 23 16.2 23H10.8C9.11984 23 8.27976 23 7.63803 22.673C7.07354 22.3854 6.6146 21.9265 6.32698 21.362C6 20.7202 6 19.8802 6 18.2V13.8Z" stroke="#4D49FC" stroke-width="1.8" stroke-linecap="round" stroke-linejoin="round"/>
</svg>
