<svg width="32" height="32" viewBox="0 0 32 32" fill="none" xmlns="http://www.w3.org/2000/svg">
<rect x="1" y="1" width="30" height="30" rx="7" stroke="#F0F0F2" stroke-width="2"/>
<g clip-path="url(#clip0_145_38920)">
<path d="M15.334 10.6662H12.534C11.4139 10.6662 10.8538 10.6662 10.426 10.8842C10.0497 11.0759 9.74372 11.3819 9.55197 11.7582C9.33398 12.186 9.33398 12.7461 9.33398 13.8662V19.4662C9.33398 20.5863 9.33398 21.1463 9.55197 21.5741C9.74372 21.9505 10.0497 22.2564 10.426 22.4482C10.8538 22.6662 11.4139 22.6662 12.534 22.6662H18.134C19.2541 22.6662 19.8141 22.6662 20.242 22.4482C20.6183 22.2564 20.9243 21.9505 21.116 21.5741C21.334 21.1463 21.334 20.5863 21.334 19.4662V16.6662M13.334 18.6662H14.4503C14.7764 18.6662 14.9395 18.6662 15.093 18.6293C15.229 18.5967 15.3591 18.5428 15.4784 18.4697C15.6129 18.3872 15.7282 18.2719 15.9588 18.0413L22.334 11.6662C22.8863 11.1139 22.8863 10.2185 22.334 9.66617C21.7817 9.11388 20.8863 9.11388 20.334 9.66617L13.9588 16.0413C13.7282 16.2719 13.6129 16.3872 13.5304 16.5218C13.4573 16.6411 13.4035 16.7711 13.3708 16.9072C13.334 17.0606 13.334 17.2237 13.334 17.5498V18.6662Z" stroke="#111113" stroke-width="1.5" stroke-linecap="round" stroke-linejoin="round"/>
</g>
<defs>
<clipPath id="clip0_145_38920">
<rect width="16" height="16" fill="white" transform="translate(8 8)"/>
</clipPath>
</defs>
</svg>


