<svg width="28" height="28" viewBox="0 0 28 28" fill="none" xmlns="http://www.w3.org/2000/svg">
<rect width="28" height="28" rx="14" fill="#F0F0F2"/>
<path d="M21.5 18.9995L20.6666 19.9112C20.2245 20.3947 19.6251 20.6662 19.0001 20.6662C18.3751 20.6662 17.7757 20.3947 17.3337 19.9112C16.891 19.4288 16.2916 19.1579 15.6668 19.1579C15.042 19.1579 14.4426 19.4288 14 19.9112M6.5 20.6662H7.89545C8.3031 20.6662 8.50693 20.6662 8.69874 20.6202C8.8688 20.5793 9.03138 20.512 9.1805 20.4206C9.34869 20.3175 9.49282 20.1734 9.78107 19.8852L20.25 9.4162C20.9404 8.72585 20.9404 7.60656 20.25 6.9162C19.5597 6.22585 18.4404 6.22585 17.75 6.9162L7.28105 17.3852C6.9928 17.6734 6.84867 17.8175 6.7456 17.9857C6.65422 18.1349 6.58688 18.2974 6.54605 18.4675C6.5 18.6593 6.5 18.8631 6.5 19.2708V20.6662Z" stroke="#111113" stroke-width="1.7" stroke-linecap="round" stroke-linejoin="round"/>
</svg>
