<svg width="24" height="24" viewBox="0 0 24 24" fill="none" xmlns="http://www.w3.org/2000/svg">
<rect width="24" height="24" rx="4" fill="#F1F1FE"/>
<path d="M18 11.9987L10 11.9987M18 7.9987L10 7.9987M18 15.9987L10 15.9987M7.33333 11.9987C7.33333 12.3669 7.03486 12.6654 6.66667 12.6654C6.29848 12.6654 6 12.3669 6 11.9987C6 11.6305 6.29848 11.332 6.66667 11.332C7.03486 11.332 7.33333 11.6305 7.33333 11.9987ZM7.33333 7.9987C7.33333 8.36689 7.03486 8.66536 6.66667 8.66536C6.29848 8.66536 6 8.36689 6 7.9987C6 7.63051 6.29848 7.33203 6.66667 7.33203C7.03486 7.33203 7.33333 7.63051 7.33333 7.9987ZM7.33333 15.9987C7.33333 16.3669 7.03486 16.6654 6.66667 16.6654C6.29848 16.6654 6 16.3669 6 15.9987C6 15.6305 6.29848 15.332 6.66667 15.332C7.03486 15.332 7.33333 15.6305 7.33333 15.9987Z" stroke="#4D49FC" stroke-width="1.5" stroke-linecap="round" stroke-linejoin="round"/>
</svg>
