<svg width="20" height="20" viewBox="0 0 20 20" fill="none" xmlns="http://www.w3.org/2000/svg">
<path d="M17.4999 7.90047C17.4999 5.61211 15.7703 3.33353 13.426 3.33341C12.0584 3.33341 11.1699 4.01537 10.6347 4.64364C10.4764 4.8295 10.2441 4.9366 9.99992 4.9366C9.75576 4.9366 9.52348 4.8295 9.36515 4.64364C8.8299 4.01537 7.9414 3.33341 6.57381 3.33341C4.22949 3.33353 2.49992 5.61211 2.49992 7.90047C2.50002 9.00147 2.92786 10.1004 3.64006 11.1622C4.35175 12.2232 5.31796 13.2019 6.31502 14.0422C7.30889 14.8798 8.31089 15.5616 9.07381 16.0336C9.45465 16.2692 9.77226 16.4504 9.99503 16.5707C9.99659 16.5716 9.99837 16.5723 9.99992 16.5732C10.0015 16.5723 10.0032 16.5716 10.0048 16.5707C10.2276 16.4504 10.5452 16.2692 10.926 16.0336C11.6889 15.5616 12.691 14.8798 13.6848 14.0422C14.6819 13.2019 15.6481 12.2232 16.3598 11.1622C17.072 10.1004 17.4998 9.00147 17.4999 7.90047ZM19.1666 7.90047C19.1665 9.43811 18.5709 10.858 17.7441 12.0907C16.9164 13.3246 15.8268 14.4167 14.759 15.3167C13.6882 16.2191 12.6167 16.948 11.8033 17.4513C11.3962 17.7031 11.0498 17.9005 10.7966 18.0372C10.6707 18.1052 10.5635 18.1608 10.4809 18.2008C10.4407 18.2202 10.3985 18.2397 10.3596 18.2561C10.3412 18.2639 10.313 18.2752 10.2807 18.2862C10.2647 18.2916 10.2374 18.3 10.2042 18.3082C10.1834 18.3133 10.1035 18.3334 9.99992 18.3334C9.89638 18.3334 9.81639 18.3133 9.79565 18.3082C9.76244 18.3 9.73512 18.2916 9.71916 18.2862C9.68682 18.2752 9.65866 18.2639 9.64022 18.2561C9.60129 18.2397 9.55909 18.2202 9.51896 18.2008C9.43638 18.1608 9.32914 18.1052 9.20321 18.0372C8.95003 17.9005 8.60367 17.7031 8.19653 17.4513C7.38316 16.948 6.31159 16.2191 5.2408 15.3167C4.17305 14.4167 3.08343 13.3246 2.25578 12.0907C1.42892 10.858 0.833353 9.43811 0.833252 7.90047C0.833252 4.97645 3.04796 1.66686 6.57381 1.66675C8.09659 1.66675 9.22164 2.25945 9.99992 2.92651C10.7782 2.25945 11.9032 1.66675 13.426 1.66675C16.9519 1.66686 19.1666 4.97645 19.1666 7.90047Z" fill="#076568"/>
</svg>
