<svg width="15" height="15" viewBox="0 0 15 15" fill="none" xmlns="http://www.w3.org/2000/svg">
<path d="M7.31706 13.9837C10.999 13.9837 13.9837 10.999 13.9837 7.31706C13.9837 3.63516 10.999 0.650391 7.31706 0.650391C3.63516 0.650391 0.650391 3.63516 0.650391 7.31706C0.650391 10.999 3.63516 13.9837 7.31706 13.9837Z" stroke="#8A8A91" stroke-width="1.3" stroke-linecap="round" stroke-linejoin="round"/>
<path d="M5.65039 5.29395C5.65039 4.97576 5.65039 4.81666 5.71688 4.72784C5.77483 4.65044 5.86353 4.60201 5.95998 4.59513C6.07065 4.58722 6.20447 4.67325 6.47213 4.84532L9.61919 6.86843C9.85145 7.01774 9.96758 7.09239 10.0077 7.18732C10.0427 7.27026 10.0427 7.36385 10.0077 7.4468C9.96758 7.54172 9.85145 7.61638 9.61919 7.76569L6.47213 9.7888C6.20447 9.96086 6.07065 10.0469 5.95998 10.039C5.86353 10.0321 5.77483 9.98367 5.71688 9.90627C5.65039 9.81745 5.65039 9.65836 5.65039 9.34017V5.29395Z" stroke="#8A8A91" stroke-width="1.3" stroke-linecap="round" stroke-linejoin="round"/>
</svg>
