<svg width="32" height="32" viewBox="0 0 32 32" fill="none" xmlns="http://www.w3.org/2000/svg">
<rect width="32" height="32" rx="8" fill="#F1F1FE"/>
<path d="M17.3327 9.51172V12.2654C17.3327 12.6388 17.3327 12.8255 17.4053 12.9681C17.4693 13.0935 17.5712 13.1955 17.6967 13.2594C17.8393 13.3321 18.026 13.3321 18.3993 13.3321H21.153M18.666 16.6654H13.3327M18.666 19.332H13.3327M14.666 13.9987H13.3327M17.3327 9.33203H13.866C12.7459 9.33203 12.1859 9.33203 11.758 9.55002C11.3817 9.74176 11.0757 10.0477 10.884 10.4241C10.666 10.8519 10.666 11.4119 10.666 12.532V19.4654C10.666 20.5855 10.666 21.1455 10.884 21.5733C11.0757 21.9497 11.3817 22.2556 11.758 22.4474C12.1859 22.6654 12.7459 22.6654 13.866 22.6654H18.1327C19.2528 22.6654 19.8128 22.6654 20.2407 22.4474C20.617 22.2556 20.9229 21.9497 21.1147 21.5733C21.3327 21.1455 21.3327 20.5855 21.3327 19.4654V13.332L17.3327 9.33203Z" stroke="#4D49FC" stroke-width="1.5" stroke-linecap="round" stroke-linejoin="round"/>
</svg>
