<svg width="16" height="16" viewBox="0 0 16 16" fill="none" xmlns="http://www.w3.org/2000/svg">
<path d="M12.0001 3.46664C12.0001 3.08227 11.9992 2.83391 11.9838 2.64502C11.969 2.46396 11.944 2.39673 11.9272 2.36377C11.8633 2.23846 11.7615 2.13665 11.6362 2.07276C11.6032 2.05596 11.536 2.03091 11.3549 2.01612C11.166 2.00068 10.9177 1.99984 10.5333 1.99984H5.46688C5.08251 1.99984 4.83416 2.00068 4.64527 2.01612C4.46421 2.03091 4.39698 2.05596 4.36402 2.07276C4.2387 2.13665 4.13689 2.23846 4.073 2.36377C4.05621 2.39673 4.03116 2.46396 4.01636 2.64502C4.00093 2.83391 4.00008 3.08227 4.00008 3.46664V12.533C4.00008 12.9174 4.00093 13.1658 4.01636 13.3547C4.03116 13.5357 4.05621 13.6029 4.073 13.6359C4.13689 13.7612 4.2387 13.863 4.36402 13.9269C4.39698 13.9437 4.46421 13.9688 4.64527 13.9836C4.83416 13.999 5.08251 13.9998 5.46688 13.9998H10.5333C10.9177 13.9998 11.166 13.999 11.3549 13.9836C11.536 13.9688 11.6032 13.9437 11.6362 13.9269C11.7615 13.863 11.8633 13.7612 11.9272 13.6359C11.944 13.6029 11.969 13.5357 11.9838 13.3547C11.9992 13.1658 12.0001 12.9174 12.0001 12.533V3.46664ZM8.00008 10.6665C8.55237 10.6665 9.00008 11.1142 9.00008 11.6665C9.00008 12.2188 8.55237 12.6665 8.00008 12.6665C7.4478 12.6665 7.00008 12.2188 7.00008 11.6665C7.00008 11.1142 7.4478 10.6665 8.00008 10.6665ZM13.3334 12.533C13.3334 12.8954 13.3341 13.2076 13.3132 13.4634C13.2917 13.7269 13.2438 13.9892 13.1153 14.2414C12.9236 14.6175 12.6178 14.9234 12.2416 15.1151C11.9894 15.2436 11.7271 15.2914 11.4636 15.313C11.2078 15.3339 10.8957 15.3332 10.5333 15.3332H5.46688C5.10451 15.3332 4.79232 15.3339 4.53654 15.313C4.27304 15.2914 4.01075 15.2436 3.75855 15.1151C3.3824 14.9234 3.07657 14.6175 2.88485 14.2414C2.75635 13.9892 2.70847 13.7269 2.68693 13.4634C2.66604 13.2076 2.66675 12.8954 2.66675 12.533V3.46664C2.66675 3.10427 2.66604 2.79208 2.68693 2.5363C2.70847 2.27279 2.75635 2.0105 2.88485 1.7583C3.07657 1.38215 3.3824 1.07632 3.75855 0.884606C4.01075 0.756104 4.27304 0.70823 4.53654 0.686689C4.79232 0.665791 5.10451 0.666507 5.46688 0.666507H10.5333C10.8957 0.666507 11.2078 0.665791 11.4636 0.686689C11.7271 0.70823 11.9894 0.756104 12.2416 0.884606C12.6178 1.07632 12.9236 1.38215 13.1153 1.7583C13.2438 2.0105 13.2917 2.27279 13.3132 2.5363C13.3341 2.79208 13.3334 3.10427 13.3334 3.46664V12.533Z" fill="#028386"/>
</svg>
