<svg width="14" height="14" viewBox="0 0 14 14" fill="none" xmlns="http://www.w3.org/2000/svg">
<path d="M9.45039 12.6504H3.2713C2.86743 12.6504 2.66549 12.6504 2.57198 12.5705C2.49084 12.5012 2.44778 12.3973 2.45616 12.2909C2.4658 12.1683 2.6086 12.0255 2.89418 11.7399L8.56281 6.0713C8.82682 5.8073 8.95883 5.67529 9.11105 5.62583C9.24494 5.58232 9.38917 5.58232 9.52307 5.62583C9.67529 5.67529 9.80729 5.80729 10.0713 6.0713L12.6504 8.65039V9.45039M9.45039 12.6504C10.5705 12.6504 11.1305 12.6504 11.5584 12.4324C11.9347 12.2407 12.2407 11.9347 12.4324 11.5584C12.6504 11.1305 12.6504 10.5705 12.6504 9.45039M9.45039 12.6504H3.85039C2.73029 12.6504 2.17023 12.6504 1.74241 12.4324C1.36609 12.2407 1.06012 11.9347 0.868378 11.5584C0.650391 11.1305 0.650391 10.5705 0.650391 9.45039V3.85039C0.650391 2.73029 0.650391 2.17023 0.868378 1.74241C1.06012 1.36609 1.36609 1.06012 1.74241 0.868378C2.17023 0.650391 2.73029 0.650391 3.85039 0.650391H9.45039C10.5705 0.650391 11.1305 0.650391 11.5584 0.868378C11.9347 1.06012 12.2407 1.36609 12.4324 1.74241C12.6504 2.17023 12.6504 2.73029 12.6504 3.85039V9.45039M5.65039 4.31706C5.65039 5.05344 5.05344 5.65039 4.31706 5.65039C3.58068 5.65039 2.98372 5.05344 2.98372 4.31706C2.98372 3.58068 3.58068 2.98372 4.31706 2.98372C5.05344 2.98372 5.65039 3.58068 5.65039 4.31706Z" stroke="#8A8A91" stroke-width="1.3" stroke-linecap="round" stroke-linejoin="round"/>
</svg>
