<svg width="20" height="20" viewBox="0 0 20 20" fill="none" xmlns="http://www.w3.org/2000/svg">
<path d="M9.59238 1.42636C9.90061 1.31999 10.2403 1.33815 10.538 1.48007C10.8319 1.62023 10.9941 1.86318 11.0759 1.99684C11.1648 2.14199 11.2566 2.32908 11.3453 2.50872L13.1283 6.12119L17.1184 6.7055C17.3165 6.73445 17.5227 6.76339 17.6881 6.80315C17.8405 6.83981 18.1217 6.9192 18.3456 7.15553C18.6049 7.42917 18.727 7.80559 18.6777 8.17929C18.6349 8.50212 18.4531 8.7317 18.3513 8.85068C18.2407 8.97992 18.091 9.12445 17.9477 9.26409L15.0619 12.0742L15.7431 16.0439C15.777 16.2414 15.8127 16.4471 15.8261 16.6168C15.8385 16.773 15.8506 17.0654 15.6951 17.3517C15.5151 17.6829 15.195 17.9153 14.8243 17.984C14.5039 18.0433 14.2292 17.9415 14.0846 17.8814C13.9274 17.8162 13.7434 17.7183 13.5662 17.6251L10.0001 15.7493L6.43401 17.6251C6.25675 17.7183 6.0728 17.8162 5.91562 17.8814C5.77095 17.9415 5.49629 18.0433 5.17588 17.984C4.80521 17.9153 4.48509 17.6829 4.30511 17.3517C4.14963 17.0654 4.16173 16.773 4.17409 16.6168C4.18752 16.4471 4.22321 16.2414 4.25709 16.0439L4.93743 12.0742L2.0525 9.26409C1.90913 9.12445 1.75947 8.97992 1.64886 8.85068C1.54706 8.7317 1.36527 8.50212 1.32252 8.17929C1.27317 7.8056 1.39531 7.42917 1.65455 7.15553C1.87846 6.9192 2.15973 6.83981 2.31211 6.80315C2.47747 6.76339 2.68371 6.73445 2.88177 6.7055L6.87103 6.12119L8.65488 2.50872C8.74355 2.32908 8.83538 2.14199 8.92425 1.99684C9.00609 1.86319 9.16829 1.62024 9.46217 1.48007L9.59238 1.42636Z" fill="#FFC107"/>
</svg>
