<svg width="32" height="32" viewBox="0 0 32 32" fill="none" xmlns="http://www.w3.org/2000/svg">
<rect x="1" y="1" width="30" height="30" rx="7" stroke="#F0F0F2" stroke-width="2"/>
<g clip-path="url(#clip0_145_38938)">
<path d="M11.0007 22.6673V19.334M11.0007 12.6673V9.33398M9.33398 11.0007H12.6673M9.33398 21.0007H12.6673M16.6673 10.0007L15.5112 13.0066C15.3232 13.4954 15.2292 13.7398 15.083 13.9454C14.9534 14.1276 14.7942 14.2868 14.612 14.4163C14.4065 14.5625 14.162 14.6565 13.6732 14.8445L10.6673 16.0007L13.6732 17.1568C14.162 17.3448 14.4065 17.4388 14.612 17.585C14.7942 17.7145 14.9534 17.8737 15.083 18.0559C15.2292 18.2615 15.3232 18.5059 15.5112 18.9947L16.6673 22.0007L17.8234 18.9947C18.0114 18.5059 18.1054 18.2615 18.2516 18.0559C18.3812 17.8737 18.5404 17.7145 18.7226 17.585C18.9282 17.4388 19.1726 17.3448 19.6614 17.1568L22.6673 16.0007L19.6614 14.8445C19.1726 14.6565 18.9282 14.5625 18.7226 14.4163C18.5404 14.2868 18.3812 14.1276 18.2516 13.9454C18.1054 13.7398 18.0114 13.4954 17.8234 13.0066L16.6673 10.0007Z" stroke="#111113" stroke-width="1.5" stroke-linecap="round" stroke-linejoin="round"/>
</g>
<defs>
<clipPath id="clip0_145_38938">
<rect width="16" height="16" fill="white" transform="translate(8 8)"/>
</clipPath>
</defs>
</svg>
