<svg width="20" height="20" viewBox="0 0 20 20" fill="none" xmlns="http://www.w3.org/2000/svg">
<g clip-path="url(#clip0_1141_18894)">
<path d="M9.99935 18.3327C14.6017 18.3327 18.3327 14.6017 18.3327 9.99935C18.3327 5.39698 14.6017 1.66602 9.99935 1.66602C5.39698 1.66602 1.66602 5.39698 1.66602 9.99935C1.66602 14.6017 5.39698 18.3327 9.99935 18.3327Z" stroke="#EC2C27" stroke-width="1.7" stroke-linecap="round" stroke-linejoin="round"/>
<path d="M6.66602 7.99935C6.66602 7.53264 6.66602 7.29928 6.75684 7.12102C6.83674 6.96422 6.96422 6.83674 7.12102 6.75684C7.29928 6.66602 7.53264 6.66602 7.99935 6.66602H11.9993C12.4661 6.66602 12.6994 6.66602 12.8777 6.75684C13.0345 6.83674 13.162 6.96422 13.2419 7.12102C13.3327 7.29928 13.3327 7.53264 13.3327 7.99935V11.9993C13.3327 12.4661 13.3327 12.6994 13.2419 12.8777C13.162 13.0345 13.0345 13.162 12.8777 13.2419C12.6994 13.3327 12.4661 13.3327 11.9993 13.3327H7.99935C7.53264 13.3327 7.29928 13.3327 7.12102 13.2419C6.96422 13.162 6.83674 13.0345 6.75684 12.8777C6.66602 12.6994 6.66602 12.4661 6.66602 11.9993V7.99935Z" stroke="#EC2C27" stroke-width="1.7" stroke-linecap="round" stroke-linejoin="round"/>
</g>
<defs>
<clipPath id="clip0_1141_18894">
<rect width="20" height="20" fill="white"/>
</clipPath>
</defs>
</svg>
