<svg width="88" height="88" viewBox="0 0 88 88" fill="none" xmlns="http://www.w3.org/2000/svg">
<g clip-path="url(#clip0_145_32523)">
<rect width="88" height="88" rx="44" fill="white"/>
<path d="M37.334 50.6667L44.0007 44M44.0007 44L50.6673 50.6667M44.0007 44V59M57.334 51.9047C59.3698 50.2234 60.6673 47.6799 60.6673 44.8333C60.6673 39.7707 56.5633 35.6667 51.5007 35.6667C51.1365 35.6667 50.7958 35.4767 50.6109 35.1629C48.4374 31.4747 44.4247 29 39.834 29C32.9304 29 27.334 34.5964 27.334 41.5C27.334 44.9435 28.7264 48.0618 30.9789 50.3226" stroke="#111113" stroke-width="2.3" stroke-linecap="round" stroke-linejoin="round"/>
<path d="M37.334 110.667L44.0007 104M44.0007 104L50.6673 110.667M44.0007 104V119M57.334 111.905C59.3698 110.223 60.6673 107.68 60.6673 104.833C60.6673 99.7707 56.5633 95.6667 51.5007 95.6667C51.1365 95.6667 50.7958 95.4767 50.6109 95.1629C48.4374 91.4747 44.4247 89 39.834 89C32.9304 89 27.334 94.5964 27.334 101.5C27.334 104.944 28.7264 108.062 30.9789 110.323" stroke="#111113" stroke-width="2.3" stroke-linecap="round" stroke-linejoin="round"/>
</g>
<rect x="1.5" y="1.5" width="85" height="85" rx="42.5" stroke="#F0F0F2" stroke-width="3"/>
<defs>
<clipPath id="clip0_145_32523">
<rect width="88" height="88" rx="44" fill="white"/>
</clipPath>
</defs>
</svg>
