<svg width="16" height="16" viewBox="0 0 16 16" fill="none" xmlns="http://www.w3.org/2000/svg">
<path d="M11.9999 2.39983C11.9999 2.20231 11.9991 2.09406 11.9927 2.01637C11.9925 2.01337 11.9917 2.01059 11.9914 2.0079C11.989 2.00768 11.9864 2.00748 11.9836 2.00725C11.9059 2.0009 11.7977 2.00009 11.6002 2.00009H4.39964C4.20212 2.00009 4.09387 2.0009 4.01618 2.00725C4.01321 2.0075 4.01038 2.00766 4.00771 2.0079C4.00747 2.01057 4.00731 2.01339 4.00706 2.01637C4.00072 2.09406 3.9999 2.20231 3.9999 2.39983V3.78329C3.9999 4.14098 4.004 4.2114 4.01813 4.27027C4.03446 4.33825 4.06168 4.40337 4.09821 4.46298C4.12985 4.51456 4.17681 4.56762 4.42959 4.8204L6.38402 6.77418C6.50823 6.89839 6.62996 7.0197 6.72386 7.1303C6.82281 7.24686 6.92933 7.39484 6.99209 7.58798C7.0791 7.85577 7.0791 8.14441 6.99209 8.4122C6.92933 8.60534 6.82281 8.75332 6.72386 8.86988C6.62996 8.98048 6.50823 9.10179 6.38402 9.226L4.42959 11.1798C4.17681 11.4326 4.12985 11.4856 4.09821 11.5372C4.06168 11.5968 4.03446 11.6619 4.01813 11.7299C4.004 11.7888 3.9999 11.8592 3.9999 12.2169V13.6004C3.9999 13.7979 4.00072 13.9061 4.00706 13.9838C4.00729 13.9865 4.00749 13.9892 4.00771 13.9916C4.0104 13.9919 4.01318 13.9927 4.01618 13.9929C4.09387 13.9993 4.20212 14.0001 4.39964 14.0001H11.6002C11.7977 14.0001 11.9059 13.9993 11.9836 13.9929C11.9864 13.9927 11.9889 13.9919 11.9914 13.9916C11.9917 13.9891 11.9925 13.9866 11.9927 13.9838C11.9991 13.9061 11.9999 13.7979 11.9999 13.6004V12.2169C11.9999 11.8592 11.9958 11.7888 11.9817 11.7299C11.9653 11.6619 11.9381 11.5968 11.9016 11.5372C11.87 11.4856 11.823 11.4326 11.5702 11.1798L9.61579 9.226C9.49157 9.10179 9.36984 8.98048 9.27594 8.86988C9.17699 8.75332 9.07047 8.60534 9.00771 8.4122C8.9207 8.14441 8.9207 7.85577 9.00771 7.58798C9.07047 7.39484 9.17699 7.24686 9.27594 7.1303C9.36984 7.0197 9.49157 6.89839 9.61579 6.77418L11.5702 4.8204C11.823 4.56762 11.87 4.51456 11.9016 4.46298C11.9381 4.40337 11.9653 4.33826 11.9817 4.27027C11.9958 4.2114 11.9999 4.14098 11.9999 3.78329V2.39983ZM9.9999 11.6668C10.3681 11.6668 10.6666 11.9652 10.6666 12.3334C10.6666 12.7016 10.3681 13.0001 9.9999 13.0001H5.9999C5.63171 13.0001 5.33323 12.7016 5.33323 12.3334C5.33323 11.9652 5.63171 11.6668 5.9999 11.6668H9.9999ZM13.3332 3.78329C13.3332 4.0776 13.3374 4.3335 13.2779 4.58147C13.2289 4.7855 13.1479 4.98069 13.0383 5.1596C12.905 5.37699 12.721 5.555 12.5129 5.76311L10.5591 7.71754C10.4194 7.85731 10.3427 7.93413 10.2922 7.99358C10.2903 7.99581 10.2887 7.99807 10.287 8.00009C10.2887 8.00212 10.2903 8.00437 10.2922 8.0066C10.3427 8.06605 10.4194 8.14287 10.5591 8.28264L12.5129 10.2371C12.721 10.4452 12.905 10.6232 13.0383 10.8406C13.1479 11.0195 13.2289 11.2147 13.2779 11.4187C13.3374 11.6667 13.3332 11.9226 13.3332 12.2169V13.6004C13.3332 13.7759 13.334 13.948 13.3222 14.0925C13.3097 14.2449 13.2802 14.4247 13.1881 14.6056C13.0602 14.8564 12.8562 15.0604 12.6054 15.1882C12.4245 15.2804 12.2447 15.3099 12.0923 15.3224C11.9478 15.3342 11.7758 15.3334 11.6002 15.3334H4.39964C4.22405 15.3334 4.05199 15.3342 3.90745 15.3224C3.75512 15.3099 3.57527 15.2804 3.39443 15.1882C3.1436 15.0604 2.93957 14.8564 2.81175 14.6056C2.71961 14.4247 2.6901 14.2449 2.67764 14.0925C2.66583 13.948 2.66657 13.7759 2.66657 13.6004V12.2169C2.66657 11.9226 2.66238 11.6667 2.72191 11.4187C2.7709 11.2147 2.85185 11.0195 2.96149 10.8406C3.09475 10.6232 3.27877 10.4452 3.48688 10.2371L5.44066 8.28264C5.58043 8.14287 5.65712 8.06605 5.70758 8.0066C5.70938 8.00449 5.71054 8.00202 5.71214 8.00009C5.71054 7.99816 5.70938 7.99569 5.70758 7.99358C5.65712 7.93413 5.58043 7.85731 5.44066 7.71754L3.48688 5.76311C3.27878 5.55501 3.09475 5.377 2.96149 5.1596C2.85185 4.98069 2.7709 4.7855 2.72191 4.58147C2.66238 4.3335 2.66657 4.0776 2.66657 3.78329V2.39983C2.66657 2.22424 2.66583 2.05218 2.67764 1.90764C2.6901 1.75531 2.71961 1.57546 2.81175 1.39462C2.93957 1.14379 3.1436 0.939763 3.39443 0.81194C3.57527 0.719797 3.75512 0.690289 3.90745 0.677825C4.05199 0.666016 4.22405 0.666757 4.39964 0.666757H11.6002C11.7758 0.666757 11.9478 0.666016 12.0923 0.677825C12.2447 0.690289 12.4245 0.719797 12.6054 0.81194C12.8249 0.923789 13.0085 1.09399 13.1366 1.30283L13.1881 1.39462L13.246 1.53004C13.2937 1.66393 13.3128 1.79346 13.3222 1.90764C13.334 2.05218 13.3332 2.22424 13.3332 2.39983V3.78329Z" fill="white"/>
</svg>
