<svg width="56" height="56" viewBox="0 0 56 56" fill="none" xmlns="http://www.w3.org/2000/svg">
<rect width="56" height="56" rx="28" fill="#F0F0F2"/>
<path d="M22 20.9915C22 20.0203 22 19.5347 22.2025 19.267C22.3789 19.0339 22.6485 18.8896 22.9404 18.8721C23.2754 18.8521 23.6795 19.1215 24.4875 19.6602L35.0031 26.6706C35.6708 27.1157 36.0046 27.3382 36.1209 27.6188C36.2227 27.864 36.2227 28.1397 36.1209 28.3849C36.0046 28.6654 35.6708 28.888 35.0031 29.3331L24.4875 36.3435C23.6795 36.8822 23.2754 37.1515 22.9404 37.1315C22.6485 37.1141 22.3789 36.9698 22.2025 36.7366C22 36.469 22 35.9834 22 35.0122V20.9915Z" stroke="#111113" stroke-width="2" stroke-linecap="round" stroke-linejoin="round"/>
</svg>
