<svg width="16" height="16" viewBox="0 0 16 16" fill="none" xmlns="http://www.w3.org/2000/svg">
<path d="M13.9998 5.46713C13.9998 5.08276 13.9996 4.8344 13.9842 4.64551C13.9694 4.46441 13.9437 4.39722 13.9269 4.36426C13.863 4.23895 13.7612 4.13714 13.6359 4.07325C13.6029 4.05645 13.5357 4.0314 13.3547 4.0166C13.1658 4.00117 12.9174 4.00033 12.533 4.00033H3.46664C3.08227 4.00033 2.83391 4.00117 2.64502 4.0166C2.46396 4.0314 2.39673 4.05645 2.36377 4.07325C2.23846 4.13714 2.13665 4.23895 2.07276 4.36426C2.05596 4.39722 2.03091 4.46445 2.01612 4.64551C2.00068 4.8344 1.99984 5.08276 1.99984 5.46713V10.5335C1.99984 10.9179 2.00068 11.1663 2.01612 11.3551C2.03091 11.5362 2.05596 11.6034 2.07276 11.6364C2.13665 11.7617 2.23846 11.8635 2.36377 11.9274C2.39673 11.9442 2.46396 11.9693 2.64502 11.9841C2.83391 11.9995 3.08227 12.0003 3.46664 12.0003H12.533C12.9174 12.0003 13.1658 11.9995 13.3547 11.9841C13.5357 11.9693 13.6029 11.9442 13.6359 11.9274C13.7612 11.8635 13.863 11.7617 13.9269 11.6364C13.9437 11.6034 13.9688 11.5362 13.9836 11.3551C13.999 11.1663 13.9998 10.9179 13.9998 10.5335V5.46713ZM8.99984 8.00033C8.99984 7.44804 8.55212 7.00033 7.99984 7.00033C7.44756 7.00033 6.99984 7.44804 6.99984 8.00033C6.99984 8.55261 7.44756 9.00033 7.99984 9.00033C8.55212 9.00033 8.99984 8.55261 8.99984 8.00033ZM3.33317 9.33366V6.66699C3.33317 6.2988 3.63165 6.00033 3.99984 6.00033C4.36803 6.00033 4.66651 6.2988 4.66651 6.66699V9.33366C4.66651 9.70185 4.36803 10.0003 3.99984 10.0003C3.63165 10.0003 3.33317 9.70185 3.33317 9.33366ZM11.3332 9.33366V6.66699C11.3332 6.2988 11.6316 6.00033 11.9998 6.00033C12.368 6.00033 12.6665 6.2988 12.6665 6.66699V9.33366C12.6665 9.70185 12.368 10.0003 11.9998 10.0003C11.6316 10.0003 11.3332 9.70185 11.3332 9.33366ZM10.3332 8.00033C10.3332 9.28899 9.2885 10.3337 7.99984 10.3337C6.71118 10.3337 5.66651 9.28899 5.66651 8.00033C5.66651 6.71166 6.71118 5.66699 7.99984 5.66699C9.2885 5.66699 10.3332 6.71166 10.3332 8.00033ZM15.3332 10.5335C15.3332 10.8959 15.3339 11.2081 15.313 11.4639C15.2914 11.7274 15.2436 11.9897 15.1151 12.2419C14.9234 12.618 14.6175 12.9238 14.2414 13.1156C13.9892 13.2441 13.7269 13.2919 13.4634 13.3135C13.2076 13.3344 12.8954 13.3337 12.533 13.3337H3.46664C3.10427 13.3337 2.79208 13.3344 2.5363 13.3135C2.27279 13.2919 2.0105 13.2441 1.7583 13.1156C1.38215 12.9238 1.07632 12.618 0.884606 12.2419C0.756105 11.9897 0.70823 11.7274 0.686689 11.4639C0.665791 11.2081 0.666507 10.8959 0.666507 10.5335V5.46713C0.666507 5.10476 0.665791 4.79257 0.686689 4.53679C0.70823 4.27328 0.756104 4.01099 0.884606 3.75879C1.07632 3.38264 1.38216 3.07681 1.7583 2.88509C2.0105 2.75659 2.27279 2.70872 2.5363 2.68718C2.79208 2.66628 3.10427 2.667 3.46664 2.667H12.533C12.8954 2.667 13.2076 2.66628 13.4634 2.68718C13.7269 2.70872 13.9892 2.75659 14.2414 2.88509C14.6175 3.07681 14.9234 3.38264 15.1151 3.75879C15.2436 4.01099 15.2915 4.27328 15.313 4.53679C15.3339 4.79257 15.3332 5.10476 15.3332 5.46713V10.5335Z" fill="#028386"/>
</svg>
