<svg width="24" height="34" viewBox="0 0 24 34" fill="none" xmlns="http://www.w3.org/2000/svg">
<path fill-rule="evenodd" clip-rule="evenodd" d="M16.5922 0.885402C14.3995 0.00503063 11.9867 -0.225316 9.65889 0.223527C7.33115 0.672315 5.19292 1.78014 3.51472 3.40682C1.83652 5.0335 0.693604 7.10608 0.230576 9.36232C-0.232452 11.6187 0.00523376 13.9574 0.913462 16.0828C1.82169 18.2082 3.35983 20.0248 5.33315 21.3029C5.38577 21.337 5.43866 21.3706 5.4918 21.4038C5.52926 21.4273 5.56697 21.4506 5.60477 21.4737H3.8147e-06V22.3684C3.8147e-06 24.669 0.703806 26.9178 2.02243 28.8306C3.34089 30.7434 5.21512 32.2342 7.40786 33.1146C9.60052 33.995 12.0133 34.2253 14.3411 33.7764C16.6689 33.3276 18.8071 32.2199 20.4853 30.5932C22.1635 28.9665 23.3064 26.8939 23.7694 24.6377C24.2325 22.3813 23.9948 20.0426 23.0866 17.9171C22.1783 15.7918 20.6402 13.9752 18.6668 12.6971C18.577 12.639 18.4864 12.582 18.3952 12.5263H24V11.6316C24 9.33104 23.2962 7.08221 21.9776 5.16943C20.6591 3.25664 18.7849 1.76578 16.5922 0.885402ZM12 10.7369H22.1118C21.9582 9.10605 21.3866 7.53307 20.4426 6.1636C19.3269 4.54507 17.7411 3.28362 15.8857 2.53868C14.0303 1.79374 11.9888 1.59883 10.0191 1.9786C8.04943 2.35836 6.24018 3.29575 4.82015 4.67214C3.40012 6.0486 2.43309 7.8023 2.04129 9.7115C1.64949 11.6207 1.85057 13.5996 2.61909 15.398C3.35675 17.1242 4.58538 18.6096 6.15943 19.6825C5.7612 18.8694 5.53843 17.9599 5.53843 17C5.53843 13.541 8.43146 10.7369 12 10.7369ZM1.8882 23.2631H12C15.5686 23.2631 18.4615 20.459 18.4615 17C18.4615 16.0401 18.2388 15.1306 17.8406 14.3175C19.4146 15.3904 20.6433 16.8758 21.3809 18.602C22.1494 20.4004 22.3505 22.3793 21.9587 24.2885C21.5669 26.1977 20.5999 27.9514 19.1799 29.3279C17.7598 30.7043 15.9506 31.6417 13.9809 32.0214C12.0112 32.4011 9.96969 32.2062 8.11432 31.4613C6.25895 30.7164 4.67306 29.455 3.5574 27.8364C2.61343 26.467 2.0418 24.8939 1.8882 23.2631ZM7.38549 16.9105C7.43409 14.5108 9.432 12.5743 11.9077 12.5272V14.2197C11.5937 15.5549 10.5094 16.606 9.13192 16.9105H7.38549ZM7.38549 17.0894C7.43409 19.4891 9.432 21.4257 11.9077 21.4728V19.7803C11.5937 18.4449 10.5093 17.3938 9.13157 17.0894H7.38549ZM12.0923 21.4728C14.568 21.4257 16.5659 19.4891 16.6145 17.0894H14.8684C13.4908 17.3938 12.4064 18.4448 12.0923 19.78V21.4728ZM16.6145 16.9105C16.5659 14.5109 14.568 12.5743 12.0923 12.5272V14.22C12.4064 15.5551 13.4907 16.6061 14.8681 16.9105H16.6145Z" fill="#8046FD"/>
</svg>
