<svg width="24" height="24" viewBox="0 0 24 24" fill="none" xmlns="http://www.w3.org/2000/svg">
<path d="M19.9999 10.5645C19.9999 9.93384 19.9911 9.80925 19.9628 9.70807C19.93 9.59107 19.8759 9.48057 19.8036 9.38288C19.7411 9.29853 19.6475 9.21494 19.1503 8.82819L12.368 3.5528C12.1813 3.40758 12.0818 3.3315 12.0067 3.28131C12.0043 3.27969 12.0021 3.27789 11.9999 3.27643C11.9977 3.27789 11.9955 3.27969 11.993 3.28131C11.9179 3.3315 11.8184 3.40758 11.6317 3.5528L4.84949 8.82819C4.35225 9.21494 4.25866 9.29853 4.19617 9.38288C4.12391 9.48057 4.06979 9.59107 4.03699 9.70807C4.00867 9.80925 3.99989 9.93384 3.99988 10.5645V17.7999C3.99988 18.3764 4.00115 18.749 4.0243 19.0323C4.0465 19.3037 4.08408 19.4047 4.10926 19.4542C4.20512 19.6421 4.35783 19.7949 4.54578 19.8907C4.59522 19.9159 4.69605 19.9535 4.96766 19.9757C5.25099 19.9988 5.62353 20.0001 6.20008 20.0001H17.7997C18.3762 20.0001 18.7488 19.9988 19.0321 19.9757C19.3037 19.9535 19.4045 19.9159 19.454 19.8907C19.6419 19.7949 19.7946 19.6421 19.8905 19.4542C19.9157 19.4047 19.9533 19.3037 19.9755 19.0323C19.9986 18.749 19.9999 18.3764 19.9999 17.7999V10.5645ZM21.9999 17.7999C21.9999 18.3432 22.0009 18.8108 21.9696 19.1944C21.9373 19.5897 21.8654 19.9831 21.6727 20.3614C21.3852 20.9258 20.9266 21.3853 20.3622 21.6729C19.9839 21.8657 19.5904 21.9365 19.1952 21.9688C18.8115 22.0002 18.3432 22.0001 17.7997 22.0001H6.20008C5.65653 22.0001 5.18824 22.0002 4.80457 21.9688C4.40933 21.9365 4.01586 21.8657 3.63758 21.6729C3.0732 21.3853 2.61461 20.9258 2.32703 20.3614C2.13433 19.9831 2.06245 19.5897 2.03016 19.1944C1.99885 18.8108 1.99988 18.3432 1.99988 17.7999V10.5645C1.99988 10.0469 1.99151 9.59665 2.11121 9.16901C2.20955 8.81787 2.37097 8.4876 2.58777 8.1944C2.8518 7.83742 3.2125 7.56776 3.62098 7.25006L10.4032 1.97467C10.6815 1.7582 11.0421 1.45386 11.4774 1.336C11.7769 1.25497 12.0905 1.24492 12.3934 1.30573L12.5223 1.336L12.6825 1.38874C13.0467 1.52885 13.3531 1.7853 13.5966 1.97467L20.3788 7.25006C20.7873 7.56776 21.148 7.83742 21.412 8.1944C21.6288 8.4876 21.7902 8.81787 21.8886 9.16901C22.0083 9.59665 21.9999 10.0469 21.9999 10.5645V17.7999Z" fill="#1C133C" fill-opacity="0.66"/>
</svg>
