<svg width="24" height="24" viewBox="0 0 24 24" fill="none" xmlns="http://www.w3.org/2000/svg">
<path d="M21.9999 17.7999C21.9999 18.3432 22.0009 18.8108 21.9696 19.1944C21.9373 19.5897 21.8654 19.9831 21.6727 20.3614C21.3852 20.9258 20.9266 21.3853 20.3622 21.6729C19.9839 21.8657 19.5904 21.9365 19.1952 21.9688C18.8115 22.0002 18.3432 22.0001 17.7997 22.0001H6.20008C5.65653 22.0001 5.18824 22.0002 4.80457 21.9688C4.40933 21.9365 4.01586 21.8657 3.63758 21.6729C3.0732 21.3853 2.61461 20.9258 2.32703 20.3614C2.13433 19.9831 2.06245 19.5897 2.03016 19.1944C1.99885 18.8108 1.99988 18.3432 1.99988 17.7999V10.5645C1.99988 10.0469 1.99151 9.59665 2.11121 9.16901C2.20955 8.81787 2.37097 8.4876 2.58777 8.1944C2.8518 7.83742 3.2125 7.56776 3.62098 7.25006L10.4032 1.97467C10.6815 1.7582 11.0421 1.45386 11.4774 1.336C11.7769 1.25497 12.0905 1.24492 12.3934 1.30573L12.5223 1.336L12.6825 1.38874C13.0467 1.52885 13.3531 1.7853 13.5966 1.97467L20.3788 7.25006C20.7873 7.56776 21.148 7.83742 21.412 8.1944C21.6288 8.4876 21.7902 8.81787 21.8886 9.16901C22.0083 9.59665 21.9999 10.0469 21.9999 10.5645V17.7999Z" fill="#0C5355"/>
</svg>
