<svg width="96" height="96" viewBox="0 0 96 96" fill="none" xmlns="http://www.w3.org/2000/svg">
<rect width="96" height="96" rx="8" fill="#BF00FF" fill-opacity="0.05"/>
<path d="M38.1579 46.7153C38.0543 46.0477 38.0006 45.3637 38.0006 44.6673C38.0006 37.3035 44.0094 31.334 51.4216 31.334C58.8339 31.334 64.8427 37.3035 64.8427 44.6673C64.8427 46.3308 64.5361 47.9231 63.9759 49.3915C63.8596 49.6965 63.8014 49.849 63.775 49.968C63.7488 50.086 63.7387 50.1689 63.7359 50.2897C63.733 50.4117 63.7495 50.5459 63.7826 50.8145L64.4536 56.2649C64.5262 56.8549 64.5625 57.1499 64.4644 57.3644C64.3784 57.5523 64.2256 57.7015 64.0358 57.7832C63.8191 57.8763 63.525 57.8332 62.9368 57.747L57.6281 56.9688C57.3509 56.9282 57.2123 56.9079 57.0861 56.9086C56.9612 56.9093 56.8748 56.9185 56.7526 56.9442C56.629 56.9702 56.4712 57.0293 56.1556 57.1475C54.6834 57.6989 53.088 58.0007 51.4216 58.0007C50.7247 58.0007 50.0401 57.9479 49.3718 57.8461M40.7199 64.6673C45.6614 64.6673 49.6673 60.5633 49.6673 55.5007C49.6673 50.438 45.6614 46.334 40.7199 46.334C35.7785 46.334 31.7726 50.438 31.7726 55.5007C31.7726 56.5183 31.9344 57.4972 32.2332 58.4119C32.3595 58.7985 32.4227 58.9918 32.4434 59.1239C32.465 59.2618 32.4688 59.3392 32.4608 59.4785C32.4531 59.612 32.4197 59.7628 32.3529 60.0645L31.334 64.6673L36.3253 63.9856C36.5978 63.9484 36.734 63.9298 36.8529 63.9306C36.9782 63.9315 37.0447 63.9383 37.1675 63.9628C37.2842 63.986 37.4576 64.0472 37.8044 64.1697C38.7183 64.4922 39.6992 64.6673 40.7199 64.6673Z" stroke="#BF00FF" stroke-width="2.5" stroke-linecap="round" stroke-linejoin="round"/>
</svg>
